<svg xmlns="http://www.w3.org/2000/svg" version="1.1" xmlns:xlink="http://www.w3.org/1999/xlink" xmlns:svgjs="http://svgjs.dev/svgjs" width="2000" height="2000" viewBox="0 0 2000 2000"><g transform="matrix(1,0,0,1,-0.9999999999998863,-0.9999999999998863)"><svg viewBox="0 0 280 280" data-background-color="#ffffff" preserveAspectRatio="xMidYMid meet" height="2000" width="2000" xmlns="http://www.w3.org/2000/svg" xmlns:xlink="http://www.w3.org/1999/xlink"><g id="tight-bounds" transform="matrix(1,0,0,1,0.13999999999998636,0.13999999999998636)"><svg viewBox="0 0 279.72 279.72" height="279.72" width="279.72"><g><svg viewBox="0 0 279.72 279.72" height="279.72" width="279.72"><g><svg viewBox="0 0 279.72 279.72" height="279.72" width="279.72"><g id="textblocktransform"><svg viewBox="0 0 279.72 279.72" height="279.72" width="279.72" id="textblock"><g><svg viewBox="0 0 279.72 279.72" height="279.72" width="279.72"><g transform="matrix(1,0,0,1,73.92936372216631,73.92937867242058)"><svg viewBox="0 0 131.8612725556674 131.86124265515886" height="131.86124265515886" width="131.8612725556674"><g id="icon-0"><svg xmlns="http://www.w3.org/2000/svg" xmlns:xlink="http://www.w3.org/1999/xlink" version="1.1" x="0" y="0" viewBox="4.999979591836734 5 90.00002040816327 90" style="enable-background:new 0 0 100 100;" xml:space="preserve" height="131.86124265515886" width="131.8612725556674" class="icon-xg-0" data-fill-palette-color="accent" id="xg-0"><g fill="#000000" data-fill-palette-color="accent"><g fill="#000000" data-fill-palette-color="accent"><path d="M93.8 47.5c0 9.6-19.6 17.4-43.8 17.4S6.2 57.1 6.2 47.5c0 0-0.5 46.2 43.8 46.2S93.8 47.5 93.8 47.5z" fill="#000000" data-fill-palette-color="accent"></path></g><g fill="#000000" data-fill-palette-color="accent"><path d="M50 95c-13.1 0-23.6-4-31.3-11.8C4.9 69.3 5 48.4 5 47.5c0-0.7 0.6-1.2 1.2-1.2 0 0 0 0 0 0 0.7 0 1.2 0.6 1.2 1.2C7.5 56.3 27 63.7 50 63.7s42.5-7.4 42.5-16.2c0-0.7 0.6-1.2 1.2-1.2 0 0 0 0 0 0 0.7 0 1.2 0.5 1.2 1.2 0 0.9 0.1 21.8-13.7 35.7C73.6 91 63.1 95 50 95zM8.1 54.4c1.1 7.2 4.1 18.7 12.4 27.1 7.2 7.3 17.2 11 29.5 11 12.4 0 22.3-3.7 29.6-11 8.3-8.4 11.3-19.8 12.4-27C85.4 61.4 69.3 66.2 50 66.2 30.7 66.2 14.6 61.4 8.1 54.4z" fill="#000000" data-fill-palette-color="accent"></path></g><g fill="#000000" data-fill-palette-color="accent"><path d="M20.4 55L18 54.4c0-0.2 4.1-16.5 23.7-20.2l0.5 2.4C24.1 40 20.4 54.8 20.4 55z" fill="#000000" data-fill-palette-color="accent"></path></g><g fill="#000000" data-fill-palette-color="accent"><path d="M15.9 52.1l-2.5-0.4c1.5-10 11-14.6 11.4-14.8l1.1 2.2-0.5-1.1 0.5 1.1C25.8 39.3 17.2 43.5 15.9 52.1z" fill="#000000" data-fill-palette-color="accent"></path></g><g fill="#000000" data-fill-palette-color="accent"><path d="M48.8 60.2C46.2 47 34.4 47.1 33.9 47.1l0-2.5c0.2 0 14.3-0.1 17.3 15.1L48.8 60.2z" fill="#000000" data-fill-palette-color="accent"></path></g><g fill="#000000" data-fill-palette-color="accent"><path d="M39.9 59.7c-1-7.4-9.9-8.1-9.9-8.1l0.2-2.5c3.8 0.2 11.2 2.7 12.2 10.2L39.9 59.7z" fill="#000000" data-fill-palette-color="accent"></path></g><g fill="#000000" data-fill-palette-color="accent"><path d="M57.6 59.7C57 52.2 52.2 47.6 48.2 45l1.4-2.1c4.4 2.8 9.8 8 10.5 16.5L57.6 59.7z" fill="#000000" data-fill-palette-color="accent"></path></g><g fill="#000000" data-fill-palette-color="accent"><path d="M64.1 45.9l-1.8-1.8c0.3-0.3 6.5-6.3 18.6-5.1l-0.3 2.5C69.7 40.4 64.1 45.9 64.1 45.9z" fill="#000000" data-fill-palette-color="accent"></path></g><g fill="#000000" data-fill-palette-color="accent"><path d="M67.4 51.1l-2-1.4c0.2-0.3 5.7-8 22-5.6L87 46.5C72.2 44.4 67.4 51.1 67.4 51.1z" fill="#000000" data-fill-palette-color="accent"></path></g><g fill="#000000" data-fill-palette-color="accent"><path d="M68.9 57.5L67 55.9c0.3-0.3 7.2-8.4 19.4-6l-0.5 2.4C75.2 50.3 69 57.4 68.9 57.5z" fill="#000000" data-fill-palette-color="accent"></path></g><g fill="#000000" data-fill-palette-color="accent"><g fill="#000000" data-fill-palette-color="accent"><path d="M57.8 56c0 0-0.1 0-0.1 0-0.5 0-0.9-0.4-1.1-0.8-0.9-2.6-2.4-4.9-4.5-7-0.4-0.4-0.5-0.9-0.2-1.4L71.4 5.7c0.1-0.3 0.4-0.5 0.7-0.6 0.3-0.1 0.7-0.1 1 0.1l9.3 4.7c0.3 0.2 0.5 0.4 0.6 0.7 0.1 0.3 0.1 0.7-0.1 1l-24 43.8C58.7 55.8 58.3 56 57.8 56zM54.6 47.1c1.4 1.5 2.5 3.1 3.4 4.9l22.2-40.4-7-3.6L54.6 47.1z" fill="#000000" data-fill-palette-color="accent"></path></g></g><g fill="#000000" data-fill-palette-color="accent"><g fill="#000000" data-fill-palette-color="accent"><path d="M46.4 53.1c-0.4 0-0.7-0.2-1-0.5-1.6-2-3.7-3.5-6.3-4.5-0.6-0.2-0.9-0.9-0.8-1.5L48.8 5.9c0.1-0.3 0.3-0.6 0.6-0.8C49.7 5 50 5 50.4 5l10 2.9C60.7 8 61 8.2 61.1 8.5c0.2 0.3 0.2 0.6 0.1 1L47.6 52.2c-0.1 0.4-0.5 0.8-1 0.8C46.6 53.1 46.5 53.1 46.4 53.1zM41.1 46.2c1.8 0.8 3.4 1.9 4.8 3.2L58.4 9.9l-7.5-2.2L41.1 46.2z" fill="#000000" data-fill-palette-color="accent"></path></g></g><g fill="#000000" data-fill-palette-color="accent"><path d="M28.4 57.6l-2.4-0.5c1.5-6.9 6.6-13.1 14.8-17.9l1.3 2.1C36.7 44.5 30 49.8 28.4 57.6z" fill="#000000" data-fill-palette-color="accent"></path></g><g fill="#000000" data-fill-palette-color="accent"><path d="M66.9 58.5c-0.4-5-2-9.3-4.7-12.7l1.9-1.6c3.1 3.8 4.8 8.5 5.2 14L66.9 58.5z" fill="#000000" data-fill-palette-color="accent"></path></g><g fill="#000000" data-fill-palette-color="accent"><path d="M56.1 40.8c-2.1-1.2-4.1-1.8-5.4-2.2l0.6-2.4c2.1 0.6 4.1 1.4 6 2.4L56.1 40.8z" fill="#000000" data-fill-palette-color="accent"></path></g><g fill="#000000" data-fill-palette-color="accent"><path d="M58.7 36.7C58.7 36.7 58.6 36.7 58.7 36.7c-2.3-0.2-4.6-0.3-7-0.3-0.4 0-0.8-0.2-1-0.5-0.2-0.3-0.3-0.7-0.2-1.1l1.6-5c0.2-0.5 0.7-0.9 1.2-0.9 2.7 0.1 5.3 0.2 7.7 0.5 0.4 0 0.8 0.3 1 0.6 0.2 0.4 0.2 0.8 0 1.1L59.8 36C59.6 36.4 59.2 36.7 58.7 36.7zM53.4 33.9c1.5 0 3 0.1 4.5 0.2l1.2-2.4c-1.6-0.1-3.2-0.2-4.9-0.3L53.4 33.9z" fill="#000000" data-fill-palette-color="accent"></path></g><g fill="#000000" data-fill-palette-color="accent"><path d="M50 66.2C24.8 66.2 5 58 5 47.5 5 38.1 21.3 30.3 43.8 29c0.4 0 0.8 0.1 1 0.5s0.3 0.7 0.2 1.1l-1.3 5.1c-0.1 0.5-0.6 0.9-1.1 0.9-18.3 1.2-29.2 6.5-29.2 10.9 0 5.3 15 11.1 36.5 11.1s36.5-5.9 36.5-11.1c0-3.8-7.6-7.7-19-9.7-0.4-0.1-0.7-0.3-0.9-0.7-0.2-0.4-0.2-0.8 0-1.1l2.5-4.5c0.3-0.5 0.8-0.7 1.3-0.6C85.6 34 95 40.4 95 47.5 95 58 75.2 66.2 50 66.2zM42.3 31.6C22.6 33.1 7.5 39.9 7.5 47.5 7.5 56.3 27 63.7 50 63.7s42.5-7.4 42.5-16.2c0-5.7-8.5-11.1-21.6-14l-1.2 2.2C81.8 38.1 89 42.5 89 47.5c0 3.9-4.1 7.4-11.9 9.9-7.3 2.4-16.9 3.7-27.1 3.7s-19.8-1.3-27.1-3.7c-7.8-2.6-11.9-6-11.9-9.9 0-7.7 15.2-12.2 30.6-13.3L42.3 31.6z" fill="#000000" data-fill-palette-color="accent"></path></g></g></svg></g></svg></g><g id="text-0"><path d="M33.82 102.375l-3.73 9.61-0.612-0.238-0.349-3.677-20.973-8.141-2.794 2.405-0.612-0.237 2.191-5.645 24.141-7.522-16.37-6.353-2.954 3.278-0.612-0.237 3.712-9.565 0.612 0.238 0.321 3.614 23.44 9.098-0.55 1.416-26.176 8.108 17.712 6.875 2.991-3.265z" fill="#000000" data-fill-palette-color="primary"></path><path d="M51.53 71.211v0c-1.112 1.436-2.419 2.431-3.923 2.985-1.509 0.55-3.071 0.679-4.686 0.387-1.616-0.293-3.149-1.001-4.601-2.125v0c-1.457-1.128-2.529-2.437-3.216-3.928-0.688-1.491-0.954-3.036-0.799-4.634 0.16-1.594 0.797-3.109 1.908-4.546v0c1.108-1.431 2.415-2.426 3.923-2.985 1.509-0.55 3.069-0.677 4.68-0.379 1.616 0.293 3.152 1.003 4.609 2.131v0c1.451 1.124 2.521 2.431 3.209 3.922 0.692 1.486 0.96 3.028 0.804 4.626-0.164 1.599-0.801 3.115-1.908 4.546zM50.482 69.668v0c0.672-0.868 0.955-1.793 0.848-2.776-0.102-0.988-0.482-1.943-1.14-2.866-0.653-0.927-1.448-1.753-2.382-2.476v0c-1.152-0.892-2.382-1.592-3.69-2.101-1.308-0.509-2.566-0.682-3.775-0.519-1.199 0.162-2.221 0.788-3.065 1.877v0c-0.688 0.888-0.981 1.827-0.878 2.815 0.106 0.983 0.477 1.939 1.112 2.869 0.639 0.924 1.436 1.757 2.392 2.497v0c1.152 0.892 2.386 1.587 3.702 2.085 1.316 0.498 2.582 0.661 3.799 0.488 1.207-0.172 2.233-0.803 3.077-1.893z" fill="#000000" data-fill-palette-color="primary"></path><path d="M71.149 52.096v0c-1.424 1.127-2.932 1.779-4.525 1.956-1.597 0.172-3.144-0.078-4.642-0.75-1.498-0.672-2.817-1.728-3.956-3.168v0c-1.143-1.445-1.869-2.973-2.179-4.586-0.31-1.613-0.197-3.176 0.337-4.69 0.539-1.509 1.52-2.827 2.945-3.954v0c1.419-1.123 2.927-1.775 4.525-1.956 1.597-0.172 3.141 0.08 4.634 0.757 1.498 0.672 2.819 1.731 3.962 3.175v0c1.139 1.44 1.863 2.966 2.173 4.578 0.315 1.609 0.205 3.17-0.33 4.684-0.544 1.513-1.525 2.831-2.944 3.954zM70.502 50.346v0c0.861-0.681 1.357-1.511 1.49-2.491 0.138-0.984-0.002-2.002-0.418-3.055-0.412-1.057-0.984-2.049-1.718-2.976v0c-0.904-1.142-1.93-2.118-3.077-2.926-1.148-0.808-2.327-1.278-3.54-1.41-1.203-0.131-2.345 0.231-3.426 1.086v0c-0.881 0.697-1.391 1.538-1.529 2.522-0.133 0.98-0.003 1.997 0.391 3.052 0.398 1.051 0.973 2.05 1.723 2.998v0c0.904 1.142 1.935 2.114 3.092 2.913 1.158 0.8 2.348 1.262 3.571 1.386 1.213 0.123 2.361-0.243 3.441-1.099z" fill="#000000" data-fill-palette-color="primary"></path><path d="M92.8 39.212v0c-1.252 0.56-2.513 0.749-3.784 0.566-1.276-0.18-2.45-0.717-3.523-1.611-1.076-0.885-1.968-2.118-2.675-3.698v0c-0.956-2.135-1.353-4.133-1.191-5.994 0.162-1.862 0.756-3.491 1.784-4.889 1.03-1.392 2.362-2.453 3.996-3.185v0c0.704-0.315 1.332-0.557 1.886-0.726 0.551-0.175 1.064-0.308 1.539-0.399v0l-3.114-6.958-3.328-0.862-0.116-0.259 4.303-4.417 0.224-0.1 11.874 26.526 3.163-0.105 0.268 0.599-5.303 2.374-1.165-1.787-0.26 0.116c-0.594 1.232-1.253 2.229-1.979 2.99-0.732 0.764-1.598 1.37-2.599 1.819zM85.444 32.252v0c0.931 2.081 2.16 3.345 3.684 3.794 1.525 0.448 3.05 0.331 4.577-0.353v0c0.602-0.27 1.183-0.644 1.741-1.123 0.555-0.47 1.05-1.028 1.484-1.673v0l-4.717-10.536c-0.837-0.255-1.611-0.385-2.321-0.388-0.708 0.002-1.425 0.166-2.152 0.491v0c-1.002 0.448-1.813 1.105-2.436 1.97-0.622 0.865-0.95 1.946-0.985 3.243-0.035 1.297 0.34 2.822 1.124 4.575z" fill="#000000" data-fill-palette-color="primary"></path><path d="M121.153 29.626l-8.295 1.834-0.142-0.641 2.25-1.853-5.231-23.661-2.874-1.562-0.062-0.277 4.896-3.411 0.249-0.055 6.247 28.253 2.821 0.732z" fill="#000000" data-fill-palette-color="primary"></path><path d="M139.455 28.805v0c-2.664 0.074-4.786-0.677-6.366-2.254-1.586-1.577-2.416-3.697-2.491-6.361v0c-0.057-2.063 0.297-3.897 1.063-5.499 0.766-1.596 1.802-2.86 3.109-3.792 1.314-0.932 2.751-1.42 4.312-1.463v0c2.174-0.061 3.906 0.646 5.196 2.119 1.289 1.48 1.973 3.634 2.052 6.462v0l-0.2 0.211-12.312 0.343c0.061 1.266 0.339 2.448 0.833 3.545 0.501 1.097 1.277 1.974 2.328 2.631 1.044 0.664 2.432 0.971 4.163 0.923v0c1.515-0.042 3.272-0.643 5.272-1.803v0l0.128-0.004 0.011 0.412c-0.601 1.2-1.516 2.245-2.746 3.134-1.224 0.884-2.674 1.349-4.352 1.396zM138.476 11.266v0c-1.319 0.037-2.384 0.527-3.194 1.471-0.817 0.944-1.296 2.258-1.439 3.942v0l9.315-0.26c-0.359-1.859-0.925-3.193-1.699-4.001-0.78-0.802-1.775-1.186-2.983-1.152z" fill="#000000" data-fill-palette-color="primary"></path><path d="M188.666 39.492l-11.116-4.371 0.24-0.611 4.436-0.035 8.279-21.057-6.247-2.456-4.828 4.62-0.62-0.244 3.048-7.751 22.406 8.809-3.048 7.751-0.62-0.244-0.389-6.67-6.246-2.456-8.279 21.057 3.225 3.047z" fill="#000000" data-fill-palette-color="primary"></path><path d="M208.97 52.404v0c-1.46-1.081-2.483-2.366-3.07-3.857-0.583-1.496-0.745-3.055-0.487-4.677 0.258-1.622 0.933-3.17 2.025-4.645v0c1.096-1.481 2.382-2.581 3.858-3.301 1.476-0.72 3.014-1.02 4.615-0.899 1.597 0.126 3.126 0.729 4.586 1.81v0c1.454 1.077 2.477 2.363 3.069 3.857 0.583 1.496 0.743 3.053 0.48 4.671-0.258 1.622-0.935 3.173-2.031 4.654v0c-1.092 1.475-2.376 2.573-3.852 3.293-1.471 0.724-3.006 1.025-4.608 0.904-1.603-0.13-3.131-0.733-4.585-1.81zM210.49 51.323v0c0.882 0.653 1.813 0.916 2.794 0.788 0.986-0.124 1.932-0.524 2.84-1.201 0.913-0.673 1.721-1.485 2.425-2.436v0c0.867-1.171 1.54-2.416 2.02-3.734 0.48-1.319 0.626-2.58 0.437-3.785-0.188-1.196-0.835-2.204-1.943-3.024v0c-0.903-0.669-1.847-0.941-2.833-0.817-0.98 0.128-1.928 0.519-2.844 1.174-0.91 0.659-1.725 1.474-2.444 2.445v0c-0.867 1.171-1.535 2.419-2.006 3.746-0.47 1.326-0.605 2.596-0.405 3.809 0.198 1.203 0.851 2.215 1.959 3.035z" fill="#000000" data-fill-palette-color="primary"></path><path d="M226.784 69.718l-0.515-0.705 9.596-15.02-0.594-2.988 0.53-0.387 5.815 7.959-0.53 0.387-2.999-1.995-0.198 0.144-6.691 10.192 0.098 0.135 14.402-3.277 0.514 0.704-7.396 12.649 0.098 0.134 11.374-3.152 0.197-0.144-0.548-3.276 0.53-0.388 4.763 6.52-0.53 0.387-2.969-1.605-17.34 4.138-0.509-0.696 7.344-12.72z" fill="#000000" data-fill-palette-color="primary"></path><path d="M246.099 101.879l-3.176-8.227 0.612-0.236 2.169 1.946 11.454-4.422 1.113-3.076 0.274-0.106 3.95 3.947 0.089 0.229-2.709 1.445 0.074 0.192c1.345 0.601 2.425 1.266 3.239 1.995 0.816 0.735 1.437 1.655 1.862 2.758v0c0.583 1.511 0.683 2.894 0.299 4.149-0.386 1.248-1.323 2.16-2.81 2.733v0l-11.344 4.38-0.299 2.899-0.612 0.236-3.176-8.227 0.612-0.237 2.289 2.257 9.535-3.68c1.127-0.435 1.85-1.12 2.168-2.056 0.318-0.935 0.26-1.966-0.175-3.094v0c-0.266-0.689-0.676-1.406-1.23-2.151-0.554-0.746-1.144-1.277-1.771-1.595v0l-11.646 4.495-0.179 3.21z" fill="#000000" data-fill-palette-color="primary"></path><path d="M4.707 143.004c0-6.522 5.287-11.81 11.809-11.81 6.522 0 11.81 5.287 11.81 11.81 0 6.522-5.287 11.81-11.81 11.809-6.522 0-11.81-5.287-11.809-11.809z" fill="#000000" data-fill-palette-color="primary"></path><path d="M251.394 143.004c0-6.522 5.287-11.81 11.81-11.81 6.522 0 11.81 5.287 11.809 11.81 0 6.522-5.287 11.81-11.809 11.809-6.522 0-11.81-5.287-11.81-11.809z" fill="#000000" data-fill-palette-color="primary"></path></g><g id="text-1"><path d="M15.091 184.797v0c-0.431-1.378-0.667-2.584-0.71-3.618-0.041-1.028 0.035-2.133 0.227-3.315v0l5.347-2.04 0.166 0.533-3.014 2.738c-0.411 1.005-0.649 1.931-0.712 2.779-0.065 0.842 0.024 1.652 0.267 2.432v0c0.409 1.309 1.073 2.228 1.991 2.755 0.918 0.528 1.966 0.607 3.144 0.239v0c0.973-0.304 1.669-0.758 2.09-1.361 0.418-0.61 0.717-1.384 0.896-2.323 0.183-0.947 0.376-2.061 0.577-3.343v0c0.211-1.209 0.457-2.261 0.738-3.156 0.277-0.887 0.697-1.624 1.259-2.211 0.554-0.591 1.343-1.046 2.366-1.366v0c0.754-0.236 1.548-0.282 2.38-0.138 0.836 0.136 1.647 0.43 2.432 0.883 0.789 0.445 1.478 1.006 2.066 1.684 0.59 0.685 1.017 1.448 1.28 2.29v0c0.318 1.016 0.49 1.996 0.518 2.938 0.028 0.943-0.041 1.939-0.205 2.99v0l-5.219 1.991-0.167-0.533 3.022-2.618c0.33-0.959 0.533-1.765 0.609-2.418 0.074-0.66-0.006-1.367-0.242-2.122v0c-0.304-0.973-0.888-1.67-1.752-2.09-0.86-0.429-1.779-0.491-2.758-0.186v0c-1.129 0.353-1.9 0.97-2.316 1.854-0.42 0.891-0.757 2.177-1.011 3.858v0c-0.238 1.56-0.505 2.861-0.802 3.905-0.296 1.044-0.744 1.889-1.343 2.535-0.597 0.652-1.463 1.155-2.598 1.51v0c-1.041 0.325-2.024 0.39-2.948 0.192-0.93-0.195-1.769-0.559-2.517-1.091-0.748-0.533-1.387-1.175-1.916-1.927-0.527-0.745-0.909-1.495-1.145-2.25z" fill="#89939e" data-fill-palette-color="secondary"></path><path d="M22.397 202.287l-2.951-6.548 0.51-0.23 1.924 1.552 18.681-8.417 0.791-2.656 0.223-0.101 3.662 3.477 0.085 0.187-22.299 10.047-0.117 2.46z" fill="#89939e" data-fill-palette-color="secondary"></path><path d="M27.384 211.371v0c-0.715-1.171-1.006-2.306-0.874-3.405 0.133-1.099 0.776-2.001 1.93-2.706v0l8.797-5.373-0.224-2.435 0.476-0.291 2.595 4.248-8.797 5.373c-0.875 0.535-1.375 1.215-1.499 2.041-0.118 0.822 0.089 1.668 0.62 2.537v0c0.327 0.535 0.777 1.072 1.351 1.61 0.57 0.532 1.138 0.886 1.704 1.06v0l9.04-5.521-0.373-2.677 0.477-0.292 2.748 4.499-12.042 7.355 0.426 2.634-0.477 0.291-2.743-4.491 1.873-1.144-0.092-0.151c-1.212-0.293-2.206-0.685-2.98-1.176-0.78-0.488-1.426-1.15-1.936-1.986z" fill="#89939e" data-fill-palette-color="secondary"></path><path d="M40.353 229.133l-4.697-5.792 0.434-0.351 2.25 1.001 8.067-6.543 0.086-2.757 0.19-0.154 4.213 2.146 0.13 0.16-2.101 2.108 0.087 0.106c1.002-0.123 1.812-0.145 2.431-0.066 0.623 0.084 1.106 0.238 1.449 0.464 0.352 0.227 0.652 0.493 0.899 0.798v0c0.119 0.147 0.227 0.337 0.324 0.57 0.102 0.229 0.176 0.429 0.223 0.601v0c0.069 0.272 0.11 0.546 0.123 0.821 0.013 0.275-0.062 0.479-0.224 0.611v0c-0.162 0.132-0.354 0.228-0.573 0.288v0l-1.769 0.526-0.148-0.182-0.436-1.362c-0.069-0.272-0.17-0.51-0.302-0.715-0.137-0.2-0.28-0.391-0.428-0.574v0c-0.613-0.756-1.52-1.08-2.719-0.973v0l-7.763 6.296 0.688 2.621z" fill="#89939e" data-fill-palette-color="secondary"></path><path d="M45.182 245.445l-5.424-5.118 0.384-0.406 2.363 0.694 12.63-13.384-0.287-2.75 0.168-0.178 4.461 1.569 0.156 0.148-1.259 1.734 0.178 0.169c1.153 0.064 2.14 0.255 2.962 0.572 0.822 0.309 1.58 0.791 2.274 1.446v0c0.86 0.812 1.412 1.75 1.655 2.815 0.248 1.06 0.183 2.171-0.195 3.332-0.378 1.162-1.093 2.301-2.147 3.417v0c-1.305 1.383-2.676 2.316-4.112 2.802-1.428 0.485-2.821 0.567-4.18 0.246-1.359-0.321-2.563-0.977-3.613-1.968v0c-0.945-0.892-1.718-1.783-2.316-2.671v0l-4.351 4.611 1.036 2.514zM60.744 230.368v0c-0.404-0.381-0.882-0.712-1.436-0.991-0.549-0.275-1.146-0.48-1.793-0.613v0l-6.718 7.119c0.123 0.888 0.374 1.655 0.753 2.3 0.379 0.645 0.892 1.273 1.537 1.883v0c0.808 0.762 1.831 1.081 3.071 0.957 1.235-0.128 2.61-0.995 4.126-2.6v0c0.991-1.05 1.627-2.062 1.908-3.036 0.286-0.979 0.289-1.896 0.01-2.753-0.279-0.856-0.765-1.611-1.458-2.266z" fill="#89939e" data-fill-palette-color="secondary"></path><path d="M56.689 254.269v0l0.44-0.589c1.085 0.175 1.998 0.136 2.742-0.115 0.742-0.261 1.328-0.679 1.758-1.255v0c0.391-0.523 0.601-1.043 0.629-1.561 0.024-0.512-0.105-1.065-0.386-1.659v0l-0.574-1.212 0.119-0.339 1.853-0.793c0.283-0.106 0.511-0.176 0.683-0.21 0.169-0.029 0.326 0.011 0.473 0.12v0c0.152 0.113 0.322 0.371 0.51 0.774v0c0.325 0.765 0.427 1.567 0.305 2.406-0.113 0.838-0.427 1.602-0.943 2.292v0c-0.736 0.983-1.722 1.681-2.96 2.093-1.238 0.412-2.788 0.428-4.649 0.048z" fill="#89939e" data-fill-palette-color="secondary"></path><path d="M82.981 262.151v0c-1.292-0.645-2.325-1.31-3.099-1.995-0.769-0.683-1.513-1.503-2.233-2.462v0l2.236-5.269 0.5 0.25-0.116 4.071c0.439 0.993 0.942 1.806 1.51 2.44 0.561 0.631 1.207 1.128 1.938 1.492v0c1.227 0.613 2.349 0.771 3.365 0.476 1.016-0.296 1.8-0.996 2.352-2.101v0c0.455-0.912 0.611-1.728 0.467-2.45-0.15-0.724-0.501-1.476-1.053-2.256-0.556-0.788-1.225-1.699-2.009-2.733v0c-0.725-0.99-1.313-1.896-1.764-2.72-0.448-0.815-0.688-1.628-0.721-2.44-0.042-0.809 0.177-1.693 0.656-2.652v0c0.353-0.707 0.87-1.311 1.55-1.811 0.677-0.509 1.451-0.889 2.321-1.141 0.867-0.261 1.75-0.368 2.647-0.322 0.903 0.049 1.749 0.27 2.538 0.664v0c0.953 0.475 1.778 1.03 2.477 1.663 0.699 0.633 1.37 1.374 2.013 2.221v0l-2.183 5.142-0.5-0.25 0.208-3.992c-0.462-0.902-0.902-1.608-1.321-2.116-0.424-0.511-0.99-0.943-1.697-1.296v0c-0.912-0.455-1.819-0.517-2.721-0.186-0.905 0.322-1.587 0.942-2.045 1.86v0c-0.528 1.058-0.618 2.043-0.27 2.953 0.351 0.92 1.044 2.054 2.08 3.404v0c0.959 1.253 1.712 2.348 2.259 3.285 0.547 0.937 0.846 1.846 0.896 2.725 0.056 0.882-0.181 1.855-0.712 2.919v0c-0.487 0.976-1.122 1.729-1.904 2.258-0.785 0.535-1.629 0.888-2.533 1.058-0.903 0.17-1.808 0.185-2.716 0.046-0.903-0.137-1.708-0.381-2.416-0.735z" fill="#89939e" data-fill-palette-color="secondary"></path><path d="M97.755 268.161v0c-1.039-0.333-1.805-0.916-2.3-1.747-0.489-0.829-0.559-1.785-0.212-2.867v0c0.349-1.088 1.056-1.901 2.121-2.438 1.064-0.537 2.619-0.72 4.663-0.551v0l3.378 0.282 0.779-2.426c0.242-0.753 0.148-1.496-0.282-2.231-0.436-0.737-1.042-1.23-1.82-1.48v0c-0.84-0.27-1.497-0.23-1.973 0.118-0.475 0.348-0.834 0.899-1.075 1.652v0l-0.3 0.933-0.219 0.104-1.726-0.554c-0.33-0.106-0.54-0.232-0.63-0.377-0.088-0.152-0.069-0.427 0.059-0.825v0c0.158-0.491 0.464-0.942 0.918-1.352 0.45-0.418 1.034-0.721 1.753-0.909v0c0.744-0.2 1.496-0.322 2.258-0.366 0.758-0.052 1.525 0.047 2.303 0.297v0c0.771 0.248 1.491 0.602 2.159 1.063 0.677 0.457 1.161 1.021 1.454 1.692 0.301 0.666 0.301 1.466 0.002 2.398v0l-3.025 9.423c0.106 0.205 0.284 0.407 0.536 0.605 0.25 0.204 0.63 0.388 1.14 0.551v0l1.26 0.404 0.082 0.099-0.033 0.102c-0.423 0.399-0.952 0.7-1.586 0.901-0.64 0.199-1.337 0.178-2.089-0.063v0c-0.684-0.22-1.182-0.582-1.494-1.087-0.318-0.507-0.468-1.087-0.45-1.74v0l-0.205-0.065c-0.758 0.395-1.623 0.642-2.595 0.741-0.974 0.106-1.924 0.01-2.851-0.287zM98.05 263.717v0c-0.439 1.368 0.168 2.318 1.822 2.849v0c0.535 0.172 1.078 0.284 1.631 0.338 0.556 0.062 1.211 0.053 1.964-0.028v0l1.576-4.907c-1.872-0.237-3.278-0.304-4.217-0.201-0.933 0.105-1.587 0.328-1.963 0.666-0.378 0.345-0.649 0.773-0.813 1.283z" fill="#89939e" data-fill-palette-color="secondary"></path><path d="M118.629 272.878l-0.726-0.116-4.076-14.874-2.133-1.434 0.089-0.551 8.224 1.318-0.089 0.551-2.979 0.575-0.035 0.212 2.865 10.304 0.135 0.022 5.395-8.772 0.033-0.203-2.279-1.635 0.089-0.552 6.743 1.081-0.088 0.551-2.737 0.792z" fill="#89939e" data-fill-palette-color="secondary"></path><path d="M136.932 275.043v0c-1.528-0.054-2.856-0.464-3.986-1.23-1.123-0.759-1.98-1.763-2.569-3.013-0.596-1.257-0.866-2.662-0.811-4.215v0c0.055-1.554 0.425-2.936 1.108-4.148 0.677-1.205 1.603-2.149 2.777-2.833 1.181-0.677 2.535-0.988 4.063-0.934v0c1.534 0.055 2.863 0.461 3.987 1.22 1.123 0.765 1.983 1.773 2.579 3.024 0.596 1.257 0.866 2.662 0.811 4.215v0c-0.055 1.554-0.425 2.936-1.108 4.148-0.683 1.205-1.612 2.146-2.787 2.822-1.175 0.684-2.529 0.998-4.064 0.944zM137.475 273.562v0c0.927 0.033 1.704-0.23 2.333-0.789 0.621-0.56 1.089-1.295 1.402-2.206 0.313-0.904 0.488-1.855 0.523-2.854v0c0.044-1.234-0.084-2.425-0.383-3.573-0.299-1.148-0.801-2.094-1.507-2.838-0.705-0.751-1.636-1.146-2.792-1.187v0c-0.953-0.034-1.744 0.229-2.371 0.788-0.621 0.56-1.095 1.288-1.421 2.185-0.32 0.897-0.497 1.855-0.534 2.873v0c-0.044 1.234 0.087 2.425 0.393 3.574 0.312 1.148 0.824 2.095 1.537 2.839 0.718 0.751 1.659 1.147 2.82 1.188z" fill="#89939e" data-fill-palette-color="secondary"></path><path d="M156.629 273.793l-7.419 0.749-0.056-0.555 2.071-1.332-1.043-10.334-2.258-1.584-0.025-0.244 4.107-2.345 0.204-0.021 0.61 2.913 0.136-0.014c0.447-0.905 0.873-1.595 1.278-2.069 0.412-0.475 0.806-0.794 1.184-0.957 0.383-0.17 0.77-0.275 1.16-0.314v0c0.188-0.019 0.407-0.005 0.654 0.042 0.247 0.041 0.455 0.089 0.625 0.144v0c0.265 0.091 0.517 0.207 0.755 0.347 0.237 0.14 0.367 0.314 0.387 0.522v0c0.021 0.208-0.003 0.421-0.073 0.638v0l-0.531 1.767-0.234 0.024-1.378-0.383c-0.265-0.091-0.519-0.138-0.763-0.139-0.242 0.005-0.481 0.019-0.714 0.042v0c-0.968 0.098-1.737 0.678-2.306 1.74v0l1.004 9.944 2.569 0.863z" fill="#89939e" data-fill-palette-color="secondary"></path><path d="M165.242 279.72v0l-0.137-0.722c0.861-0.682 1.45-1.382 1.766-2.1 0.308-0.723 0.396-1.438 0.262-2.144v0c-0.122-0.642-0.364-1.148-0.727-1.518-0.361-0.364-0.856-0.642-1.485-0.835v0l-1.282-0.396-0.169-0.317 0.666-1.901c0.113-0.281 0.215-0.496 0.307-0.647 0.092-0.144 0.228-0.233 0.408-0.267v0c0.186-0.035 0.491 0.013 0.915 0.146v0c0.784 0.277 1.444 0.743 1.981 1.4 0.542 0.649 0.893 1.396 1.054 2.243v0c0.229 1.207 0.077 2.406-0.455 3.597-0.532 1.191-1.567 2.345-3.104 3.461z" fill="#89939e" data-fill-palette-color="secondary"></path><path d="M188.811 265.642v0c-1.347 0.518-2.536 0.832-3.564 0.94-1.023 0.106-2.13 0.102-3.323-0.013v0l-2.38-5.205 0.521-0.201 2.927 2.832c1.029 0.346 1.969 0.524 2.819 0.533 0.844 0.011 1.647-0.13 2.409-0.423v0c1.28-0.492 2.154-1.214 2.622-2.163 0.468-0.95 0.48-2.001 0.037-3.153v0c-0.366-0.951-0.863-1.617-1.493-1.998-0.635-0.379-1.427-0.627-2.376-0.745-0.957-0.122-2.081-0.242-3.372-0.362v0c-1.22-0.133-2.286-0.311-3.198-0.534-0.903-0.22-1.666-0.591-2.287-1.115-0.625-0.515-1.13-1.273-1.514-2.273v0c-0.284-0.738-0.381-1.526-0.291-2.366 0.082-0.843 0.323-1.671 0.725-2.483 0.393-0.816 0.909-1.54 1.548-2.171 0.645-0.633 1.38-1.108 2.203-1.424v0c0.994-0.382 1.96-0.617 2.899-0.706 0.939-0.088 1.938-0.084 2.997 0.013v0l2.322 5.081-0.522 0.2-2.806-2.847c-0.978-0.268-1.795-0.419-2.452-0.453-0.663-0.032-1.364 0.094-2.102 0.378v0c-0.951 0.366-1.609 0.993-1.974 1.882-0.373 0.885-0.376 1.807-0.008 2.764v0c0.424 1.104 1.09 1.834 1.998 2.193 0.916 0.362 2.221 0.616 3.915 0.761v0c1.572 0.137 2.888 0.321 3.949 0.55 1.061 0.229 1.933 0.621 2.616 1.178 0.689 0.554 1.247 1.386 1.673 2.495v0c0.392 1.018 0.519 1.995 0.382 2.929-0.135 0.941-0.444 1.802-0.928 2.583-0.484 0.781-1.083 1.46-1.8 2.036-0.71 0.574-1.434 1.003-2.172 1.287z" fill="#89939e" data-fill-palette-color="secondary"></path><path d="M206.161 256.2l-6.106 3.893-0.3-0.471 1.25-2.122-5.583-8.759-2.737-0.393-0.132-0.207 2.612-3.942 0.182-0.116 1.649 2.005 0.149-0.095c0.248-1.204 0.598-2.198 1.051-2.982 0.447-0.781 1.073-1.428 1.877-1.94v0c0.942-0.6 1.88-0.904 2.813-0.91 0.937-0.001 1.77 0.359 2.501 1.079v0l0.09-0.058c0.27-1.388 0.632-2.514 1.089-3.379 0.453-0.87 1.112-1.58 1.977-2.131v0c1.096-0.699 2.187-0.987 3.271-0.865 1.079 0.125 1.981 0.756 2.704 1.89v0l5.525 8.668 2.451-0.238 0.301 0.471-6.289 4.008-0.3-0.471 1.49-2.274-4.645-7.288c-0.548-0.859-1.224-1.35-2.03-1.472-0.811-0.118-1.616 0.077-2.415 0.587v0c-0.667 0.425-1.226 0.933-1.679 1.523-0.452 0.591-0.736 1.228-0.849 1.913v0l5.504 8.634 2.625-0.348 0.3 0.471-6.346 4.045-0.3-0.471 1.374-2.201-4.645-7.288c-0.548-0.859-1.227-1.348-2.039-1.466-0.806-0.122-1.611 0.074-2.415 0.587v0c-0.49 0.313-0.982 0.75-1.476 1.312-0.494 0.563-0.821 1.131-0.981 1.706v0l5.673 8.899 2.509-0.274z" fill="#89939e" data-fill-palette-color="secondary"></path><path d="M215.165 225.182v0c-0.453 0.405-0.962 0.585-1.529 0.541-0.567-0.036-1.044-0.27-1.432-0.704v0c-0.401-0.448-0.586-0.953-0.555-1.515 0.03-0.553 0.272-1.033 0.724-1.439v0c0.448-0.401 0.951-0.588 1.51-0.562 0.558 0.035 1.037 0.277 1.438 0.725v0c0.388 0.433 0.571 0.931 0.549 1.494-0.022 0.572-0.257 1.059-0.705 1.46zM231.422 237.799l-5.35 4.791-0.373-0.416 0.89-2.296-6.929-7.738-2.758 0.05-0.163-0.183 2.193-4.542 0.161-0.144 9.576 10.694 2.381-0.632z" fill="#89939e" data-fill-palette-color="secondary"></path><path d="M239.128 229.601l-4.906 5.246-0.407-0.382 0.689-2.373-14.965-13.994-2.756 0.293-0.179-0.167 1.797-4.719 0.14-0.151 17.864 16.706 2.315-0.841z" fill="#89939e" data-fill-palette-color="secondary"></path><path d="M246.324 220.739v0c-1.353 1.803-2.968 2.812-4.845 3.029-1.877 0.217-3.718-0.352-5.52-1.704v0c-1.395-1.047-2.42-2.244-3.075-3.593-0.66-1.352-0.953-2.703-0.879-4.053 0.072-1.359 0.504-2.566 1.296-3.621v0c1.102-1.468 2.482-2.241 4.142-2.32 1.654-0.082 3.44 0.596 5.357 2.035v0l0.028 0.241-6.252 8.332c0.869 0.627 1.799 1.064 2.791 1.31 0.988 0.251 1.977 0.201 2.967-0.151 0.986-0.346 1.919-1.104 2.797-2.274v0c0.768-1.024 1.297-2.502 1.586-4.433v0l0.059-0.078 0.274 0.206c0.482 1.023 0.693 2.174 0.633 3.451-0.055 1.282-0.508 2.489-1.359 3.623zM234.197 212.167v0c-0.666 0.888-0.902 1.85-0.708 2.886 0.198 1.031 0.816 2.037 1.851 3.019v0l4.728-6.302c-1.417-0.745-2.598-1.071-3.541-0.979-0.938 0.097-1.715 0.555-2.33 1.376z" fill="#89939e" data-fill-palette-color="secondary"></path></g></svg></g></svg></g></svg></g></svg></g><defs></defs></svg><rect width="279.72" height="279.72" fill="none" stroke="none" visibility="hidden"></rect></g></svg></g></svg>