<svg xmlns="http://www.w3.org/2000/svg" version="1.1" xmlns:xlink="http://www.w3.org/1999/xlink" xmlns:svgjs="http://svgjs.dev/svgjs" width="2000" height="2295" viewBox="0 0 2000 2295"><g transform="matrix(1,0,0,1,0.6989369433640604,0)"><svg viewBox="0 0 244 280" data-background-color="#ffffff" preserveAspectRatio="xMidYMid meet" height="2295" width="2000" xmlns="http://www.w3.org/2000/svg" xmlns:xlink="http://www.w3.org/1999/xlink"><g id="tight-bounds" transform="matrix(1,0,0,1,-0.08527030709041128,0)"><svg viewBox="0 0 244.1705406141808 280" height="280" width="244.1705406141808"><g><svg viewBox="0 0 278.2696 319.1027377996266" height="280" width="244.1705406141808"><g><svg viewBox="0 0 278.2696 319.1027377996266" height="319.1027377996266" width="278.2696"><g id="textblocktransform"><svg viewBox="0 0 278.2696 319.1027377996266" height="319.1027377996266" width="278.2696" id="textblock"><g><svg viewBox="0 0 278.2696 278.2696" height="278.2696" width="278.2696"><g transform="matrix(1,0,0,1,89.94321971048298,89.9432308650338)"><svg viewBox="0 0 98.38316057903407 98.38313826993243" height="98.38313826993243" width="98.38316057903407"><g id="icon-0"><svg xmlns="http://www.w3.org/2000/svg" xmlns:xlink="http://www.w3.org/1999/xlink" version="1.1" x="0" y="0" viewBox="4.999979591836734 5 90.00002040816327 90" style="enable-background:new 0 0 100 100;" xml:space="preserve" height="98.38313826993243" width="98.38316057903407" class="icon-xg-0" data-fill-palette-color="accent" id="xg-0"><g fill="#d2d6dc" data-fill-palette-color="accent"><g fill="#d2d6dc" data-fill-palette-color="accent"><path d="M50 95c-13.1 0-23.6-4-31.3-11.8C4.9 69.3 5 48.4 5 47.5c0-0.7 0.6-1.2 1.2-1.2 0 0 0 0 0 0 0.7 0 1.2 0.6 1.2 1.2C7.5 56.3 27 63.7 50 63.7s42.5-7.4 42.5-16.2c0-0.7 0.6-1.2 1.2-1.2 0 0 0 0 0 0 0.7 0 1.2 0.5 1.2 1.2 0 0.9 0.1 21.8-13.7 35.7C73.6 91 63.1 95 50 95zM8.1 54.4c1.1 7.2 4.1 18.7 12.4 27.1 7.2 7.3 17.2 11 29.5 11 12.4 0 22.3-3.7 29.6-11 8.3-8.4 11.3-19.8 12.4-27C85.4 61.4 69.3 66.2 50 66.2 30.7 66.2 14.6 61.4 8.1 54.4z" fill="#000000" data-fill-palette-color="accent"></path></g><g fill="#d2d6dc" data-fill-palette-color="accent"><path d="M20.4 55L18 54.4c0-0.2 4.1-16.5 23.7-20.2l0.5 2.4C24.1 40 20.4 54.8 20.4 55z" fill="#000000" data-fill-palette-color="accent"></path></g><g fill="#d2d6dc" data-fill-palette-color="accent"><path d="M15.9 52.1l-2.5-0.4c1.5-10 11-14.6 11.4-14.8l1.1 2.2-0.5-1.1 0.5 1.1C25.8 39.3 17.2 43.5 15.9 52.1z" fill="#000000" data-fill-palette-color="accent"></path></g><g fill="#d2d6dc" data-fill-palette-color="accent"><path d="M48.8 60.2C46.2 47 34.4 47.1 33.9 47.1l0-2.5c0.1 0 14.3-0.1 17.3 15.1L48.8 60.2z" fill="#000000" data-fill-palette-color="accent"></path></g><g fill="#d2d6dc" data-fill-palette-color="accent"><path d="M39.9 59.7c-1-7.4-9.9-8.1-9.9-8.1l0.2-2.5c3.8 0.2 11.2 2.7 12.2 10.2L39.9 59.7z" fill="#000000" data-fill-palette-color="accent"></path></g><g fill="#d2d6dc" data-fill-palette-color="accent"><path d="M57.6 59.7C57 52.2 52.2 47.6 48.2 45l1.4-2.1c4.4 2.8 9.8 8 10.5 16.5L57.6 59.7z" fill="#000000" data-fill-palette-color="accent"></path></g><g fill="#d2d6dc" data-fill-palette-color="accent"><path d="M64.1 45.9l-1.8-1.8c0.3-0.3 6.5-6.3 18.6-5.1l-0.3 2.5C69.7 40.4 64.1 45.9 64.1 45.9z" fill="#000000" data-fill-palette-color="accent"></path></g><g fill="#d2d6dc" data-fill-palette-color="accent"><path d="M67.4 51.1l-2-1.4c0.2-0.3 5.7-8 22-5.6L87 46.5C72.2 44.4 67.4 51.1 67.4 51.1z" fill="#000000" data-fill-palette-color="accent"></path></g><g fill="#d2d6dc" data-fill-palette-color="accent"><path d="M68.9 57.5L67 55.9c0.3-0.3 7.2-8.4 19.4-6l-0.5 2.4C75.2 50.3 69 57.4 68.9 57.5z" fill="#000000" data-fill-palette-color="accent"></path></g><g fill="#d2d6dc" data-fill-palette-color="accent"><g fill="#d2d6dc" data-fill-palette-color="accent"><path d="M57.8 56c0 0-0.1 0-0.1 0-0.5 0-0.9-0.4-1.1-0.8-0.9-2.6-2.4-4.9-4.5-7-0.4-0.4-0.5-0.9-0.2-1.4L71.4 5.7c0.1-0.3 0.4-0.5 0.7-0.6 0.3-0.1 0.7-0.1 1 0.1l9.3 4.7c0.3 0.2 0.5 0.4 0.6 0.7 0.1 0.3 0.1 0.7-0.1 1l-24 43.8C58.7 55.8 58.3 56 57.8 56zM54.6 47.1c1.4 1.5 2.5 3.1 3.4 4.9l22.2-40.4-7-3.6L54.6 47.1z" fill="#000000" data-fill-palette-color="accent"></path></g></g><g fill="#d2d6dc" data-fill-palette-color="accent"><g fill="#d2d6dc" data-fill-palette-color="accent"><path d="M46.4 53.1c-0.4 0-0.7-0.2-1-0.5-1.6-2-3.7-3.5-6.3-4.5-0.6-0.2-0.9-0.9-0.8-1.5L48.8 5.9c0.1-0.3 0.3-0.6 0.6-0.8C49.7 5 50 5 50.4 5l10 2.9C60.7 8 61 8.2 61.1 8.5c0.2 0.3 0.2 0.6 0.1 1L47.6 52.2c-0.1 0.4-0.5 0.8-1 0.8C46.6 53.1 46.5 53.1 46.4 53.1zM41.1 46.2c1.8 0.8 3.4 1.9 4.8 3.2L58.4 9.9l-7.5-2.2L41.1 46.2z" fill="#000000" data-fill-palette-color="accent"></path></g></g><g fill="#d2d6dc" data-fill-palette-color="accent"><path d="M28.4 57.6l-2.4-0.5c1.5-6.9 6.6-13.1 14.8-17.9l1.3 2.1C36.7 44.5 30 49.8 28.4 57.6z" fill="#000000" data-fill-palette-color="accent"></path></g><g fill="#d2d6dc" data-fill-palette-color="accent"><path d="M66.9 58.5c-0.4-5-2-9.3-4.7-12.7l1.9-1.6c3.1 3.8 4.8 8.5 5.2 14L66.9 58.5z" fill="#000000" data-fill-palette-color="accent"></path></g><g fill="#d2d6dc" data-fill-palette-color="accent"><path d="M56.1 40.8c-2.1-1.2-4.1-1.8-5.4-2.2l0.6-2.4c2.1 0.6 4.1 1.4 6 2.4L56.1 40.8z" fill="#000000" data-fill-palette-color="accent"></path></g><g fill="#d2d6dc" data-fill-palette-color="accent"><path d="M58.7 36.7C58.7 36.7 58.6 36.7 58.7 36.7c-2.3-0.2-4.6-0.3-7-0.3-0.4 0-0.8-0.2-1-0.5-0.2-0.3-0.3-0.7-0.2-1.1l1.6-5c0.2-0.5 0.7-0.9 1.2-0.9 2.7 0.1 5.3 0.2 7.7 0.5 0.4 0 0.8 0.3 1 0.6 0.2 0.4 0.2 0.8 0 1.1L59.8 36C59.6 36.4 59.2 36.7 58.7 36.7zM53.4 33.9c1.5 0 3 0.1 4.5 0.2l1.2-2.4c-1.6-0.1-3.2-0.2-4.9-0.3L53.4 33.9z" fill="#000000" data-fill-palette-color="accent"></path></g><g fill="#d2d6dc" data-fill-palette-color="accent"><path d="M50 66.2C24.8 66.2 5 58 5 47.5 5 38.1 21.3 30.3 43.8 29c0.4 0 0.8 0.1 1 0.5 0.3 0.3 0.3 0.7 0.2 1.1l-1.3 5.1c-0.1 0.5-0.6 0.9-1.1 0.9-18.3 1.2-29.2 6.5-29.2 10.9 0 5.3 15 11.1 36.5 11.1s36.5-5.9 36.5-11.1c0-3.8-7.6-7.7-19-9.7-0.4-0.1-0.7-0.3-0.9-0.7-0.2-0.4-0.2-0.8 0-1.1l2.5-4.5c0.3-0.5 0.8-0.7 1.3-0.6C85.6 34 95 40.4 95 47.5 95 58 75.2 66.2 50 66.2zM42.3 31.6C22.6 33.1 7.5 39.9 7.5 47.5 7.5 56.3 27 63.7 50 63.7s42.5-7.4 42.5-16.2c0-5.7-8.5-11.1-21.6-14l-1.2 2.2C81.8 38.1 89 42.5 89 47.5c0 3.9-4.1 7.4-11.9 9.9-7.3 2.4-16.9 3.7-27.1 3.7s-19.8-1.3-27.1-3.7c-7.8-2.6-11.9-6-11.9-9.9 0-7.7 15.2-12.2 30.6-13.3L42.3 31.6z" fill="#000000" data-fill-palette-color="accent"></path></g><g fill="#d2d6dc" data-fill-palette-color="accent"><g fill="#d2d6dc" data-fill-palette-color="accent"><circle cx="50.1" cy="78.3" r="4.5" fill="#000000" data-fill-palette-color="accent"></circle></g><g fill="#d2d6dc" data-fill-palette-color="accent"><path d="M93.8 47.5c0 9.6-19.6 17.4-43.8 17.4S6.2 57.1 6.2 47.5c0 0-0.5 46.2 43.8 46.2S93.8 47.5 93.8 47.5zM50.1 85.2c-3.8 0-6.9-3.1-6.9-6.9 0-3.8 3.1-6.9 6.9-6.9s6.9 3.1 6.9 6.9C57 82.1 53.9 85.2 50.1 85.2z" fill="#000000" data-fill-palette-color="accent"></path></g></g></g></svg></g></svg></g><g id="text-0"><path d="M38.521 92.681c-4.341 0.927-8.5 1.856-12.478 2.788-3.975 0.925-7.2 1.702-9.676 2.331-2.47 0.631-4.032 1.03-4.687 1.197v0l-0.074 0.193 16.484 6.481c0.566 0.215 1 0.274 1.304 0.178 0.301-0.09 0.536-0.356 0.705-0.798v0l0.712-1.988 0.185-0.015 1.614 1.004c-0.134 0.28-0.39 0.851-0.767 1.714-0.371 0.865-0.688 1.645-0.952 2.34v0c-0.245 0.646-0.466 1.367-0.664 2.165-0.203 0.795-0.334 1.315-0.392 1.561v0l-1.716-0.873c0.199-0.839 0.188-1.522-0.034-2.05-0.228-0.53-0.727-0.958-1.496-1.286v0l-16.746-6.928c-0.806-0.306-1.464-0.285-1.976 0.062-0.52 0.351-1.09 1.148-1.71 2.39v0l-0.239 0.047-1.32-0.86c0.117-0.216 0.349-0.705 0.694-1.467 0.343-0.756 0.598-1.353 0.764-1.79v0c0.205-0.541 0.388-1.077 0.547-1.607 0.162-0.537 0.259-0.887 0.293-1.05v0c3.696-0.785 7.33-1.6 10.902-2.446 3.578-0.844 6.528-1.563 8.851-2.159 2.329-0.593 3.801-0.967 4.415-1.121v0l0.074-0.193-15.7-5.961c-1.113-0.423-1.832-0.207-2.156 0.648v0l-0.511 1.484-0.188 0.024-1.611-1.013c0.123-0.249 0.34-0.729 0.653-1.441 0.312-0.712 0.61-1.439 0.892-2.183v0c0.257-0.676 0.496-1.437 0.719-2.281 0.218-0.853 0.364-1.413 0.437-1.681v0l1.707 0.869c-0.216 0.959-0.215 1.716 0.004 2.271 0.219 0.554 0.698 0.986 1.439 1.296v0l21.581 8.816z" fill="#000000" data-fill-palette-color="primary"></path><path d="M48.998 73.727c-0.946 1.263-2.092 2.151-3.438 2.664-1.351 0.509-2.787 0.616-4.309 0.322-1.528-0.298-3.01-0.985-4.447-2.062v0c-1.548-1.159-2.715-2.564-3.501-4.213-0.79-1.644-1.117-3.331-0.98-5.061 0.138-1.721 0.748-3.302 1.829-4.745v0c0.927-1.237 2.067-2.117 3.42-2.64 1.359-0.519 2.799-0.632 4.321-0.338 1.528 0.298 3.01 0.985 4.447 2.062v0c1.548 1.159 2.717 2.561 3.507 4.205 0.79 1.644 1.117 3.331 0.98 5.061-0.142 1.726-0.752 3.308-1.829 4.745zM48.064 71.584c0.931-1.242 1.167-2.606 0.71-4.091-0.461-1.48-1.555-2.866-3.282-4.16v0c-1.306-0.978-2.62-1.654-3.942-2.028-1.332-0.373-2.554-0.414-3.669-0.122-1.11 0.286-2.006 0.885-2.688 1.795v0c-0.927 1.237-1.156 2.602-0.689 4.095 0.472 1.488 1.582 2.886 3.33 4.195v0c1.306 0.978 2.617 1.652 3.934 2.023 1.316 0.361 2.52 0.4 3.611 0.116 1.096-0.289 1.991-0.896 2.685-1.823z" fill="#000000" data-fill-palette-color="primary"></path><path d="M68.5 53.738c-1.227 0.993-2.556 1.573-3.986 1.74-1.434 0.162-2.853-0.086-4.257-0.745-1.408-0.663-2.677-1.693-3.806-3.088v0c-1.216-1.503-2.003-3.151-2.362-4.943-0.363-1.788-0.266-3.503 0.291-5.147 0.556-1.634 1.535-3.018 2.936-4.152v0c1.202-0.972 2.523-1.546 3.963-1.721 1.444-0.17 2.869 0.074 4.272 0.732 1.408 0.663 2.677 1.693 3.806 3.088v0c1.216 1.503 2.006 3.149 2.37 4.937 0.363 1.788 0.266 3.503-0.291 5.147-0.561 1.639-1.54 3.022-2.936 4.152zM68.119 51.431c1.207-0.976 1.771-2.24 1.691-3.792-0.084-1.548-0.805-3.16-2.162-4.837v0c-1.026-1.268-2.134-2.246-3.324-2.933-1.2-0.688-2.375-1.027-3.527-1.018-1.146 0.005-2.162 0.366-3.047 1.082v0c-1.202 0.972-1.759 2.239-1.671 3.801 0.093 1.558 0.826 3.186 2.199 4.884v0c1.026 1.268 2.132 2.243 3.319 2.925 1.187 0.673 2.345 1.005 3.472 0.998 1.133-0.011 2.15-0.381 3.05-1.11z" fill="#000000" data-fill-palette-color="primary"></path><path d="M100.574 35.567c-1.97 0.881-3.496 0.489-4.578-1.174v0l-0.314 0c-1.821 2.969-2.996 4.571-3.524 4.808v0c-1.441 0.644-2.868 0.879-4.279 0.703-1.409-0.17-2.688-0.726-3.837-1.668-1.146-0.936-2.07-2.187-2.77-3.754v0c-0.803-1.795-1.119-3.639-0.95-5.531 0.17-1.892 0.782-3.61 1.835-5.155 1.047-1.542 2.417-2.691 4.111-3.448v0c0.805-0.36 1.697-0.701 2.676-1.024v0l-2.807-6.278c-0.61-1.363-1.383-1.835-2.319-1.416v0c-0.174 0.078-0.355 0.18-0.544 0.308-0.182 0.125-0.295 0.211-0.338 0.259v0l-0.471-1.465c1.02-0.636 2.053-1.339 3.099-2.11 1.052-0.773 1.723-1.271 2.012-1.494v0l0.456 0.391c-0.092 0.553 0.853 3.326 2.834 8.319 1.972 4.991 4.195 10.251 6.668 15.782v0c0.247 0.552 0.577 0.92 0.99 1.103 0.41 0.177 0.856 0.158 1.336-0.057v0c0.354-0.158 0.672-0.383 0.952-0.675 0.281-0.291 0.492-0.559 0.636-0.803 0.146-0.253 0.233-0.414 0.259-0.483v0l0.801 0.366c-0.016 0.158-0.083 0.516-0.201 1.073-0.115 0.549-0.317 1.161-0.605 1.838-0.291 0.671-0.667 1.199-1.128 1.585zM91.662 36.472c0.528-0.236 1.033-0.646 1.515-1.229 0.484-0.577 0.871-1.121 1.161-1.632 0.287-0.503 0.47-0.834 0.551-0.992v0l-4.64-10.377c-0.1-0.013-0.33-0.022-0.692-0.025-0.365-0.01-0.848 0.044-1.451 0.163-0.597 0.116-1.237 0.326-1.922 0.632v0c-1.687 0.754-2.76 1.926-3.217 3.514-0.46 1.582-0.244 3.37 0.647 5.363v0c0.564 1.261 1.299 2.309 2.205 3.142 0.903 0.843 1.874 1.396 2.914 1.659 1.046 0.26 2.022 0.187 2.929-0.218z" fill="#000000" data-fill-palette-color="primary"></path><path d="M112.485 31.878l-0.19-1.694c0.713-0.38 1.189-0.764 1.429-1.152 0.247-0.389 0.353-0.822 0.319-1.299-0.027-0.472-0.155-1.248-0.385-2.329v0l-4.243-19.918c-0.18-0.843-0.397-1.392-0.654-1.646-0.25-0.256-0.674-0.321-1.272-0.193v0c-0.135 0.029-0.438 0.12-0.91 0.274v0l-0.141-0.05-0.13-1.415c2.201-0.812 4.118-1.631 5.751-2.456v0l0.355 0.479c-0.199 0.52 0.154 3.468 1.056 8.844 0.91 5.375 1.998 11.038 3.266 16.989v0c0.173 0.811 0.403 1.37 0.691 1.679 0.293 0.301 0.696 0.396 1.211 0.287v0l1.402-0.38 0.112 0.148 0.054 1.814c-1.806 0.297-3.021 0.513-3.646 0.646v0c-0.914 0.195-2.272 0.652-4.075 1.372z" fill="#000000" data-fill-palette-color="primary"></path><path d="M139.442 28.888c-1.716 0.034-3.243-0.315-4.58-1.045-1.343-0.737-2.387-1.795-3.131-3.176-0.751-1.38-1.144-2.971-1.179-4.773v0c-0.036-1.848 0.354-3.596 1.17-5.243 0.81-1.647 1.909-2.968 3.298-3.963 1.388-0.994 2.885-1.507 4.489-1.538v0c2.019-0.04 3.565 0.44 4.637 1.438 1.072 1.005 1.628 2.488 1.666 4.448v0c0.016 0.802-0.057 1.481-0.216 2.037v0l-0.523 0.514-11.443 0.224c0.02 2.677 0.589 4.732 1.709 6.164 1.12 1.432 2.663 2.129 4.63 2.09v0c1.545-0.03 3.224-0.494 5.035-1.391v0l0.249 0.084 0.477 1.194c-0.979 0.736-2.065 1.406-3.257 2.008-1.192 0.602-2.203 0.912-3.031 0.928zM133.757 16.269l7.5-0.522c0.413-0.061 0.688-0.162 0.823-0.302 0.135-0.141 0.199-0.418 0.191-0.833v0c-0.022-1.105-0.334-1.944-0.937-2.518-0.603-0.567-1.461-0.84-2.572-0.818v0c-1.296 0.025-2.398 0.488-3.309 1.387-0.91 0.906-1.475 2.108-1.696 3.606z" fill="#000000" data-fill-palette-color="primary"></path><path d="M176.279 34.939l0.98-1.53c1.323 0.414 2.271 0.613 2.845 0.597 0.577-0.022 1.058-0.292 1.445-0.811 0.384-0.512 0.872-1.499 1.463-2.963v0l6.776-16.768c-2.209-0.801-3.737-1.276-4.584-1.427-0.85-0.145-1.534 0.012-2.052 0.469-0.515 0.466-1.224 1.485-2.129 3.056v0l-1.865-0.572c1.291-2.316 2.379-4.455 3.264-6.418v0l0.473-0.171 3.023 1.711 11.92 4.817 3.435 0.899 0.222 0.451c-0.775 2.127-1.457 4.37-2.048 6.728v0l-1.874-0.576c0.405-1.809 0.585-3.063 0.541-3.761-0.041-0.705-0.386-1.291-1.035-1.759-0.646-0.474-1.972-1.177-3.979-2.109v0c-0.776 1.481-2.014 4.142-3.715 7.981-1.703 3.845-3.186 7.332-4.45 10.461v0c-0.384 0.951-0.492 1.692-0.323 2.221 0.175 0.532 0.659 0.958 1.452 1.279v0c0.768 0.311 1.489 0.556 2.161 0.735v0l0.056 0.203-1.064 1.635-1.244-0.556-4.362-1.848c-1.409-0.569-3.186-1.227-5.332-1.974z" fill="#000000" data-fill-palette-color="primary"></path><path d="M204.596 49.845c-1.294-0.905-2.218-2.021-2.775-3.349-0.552-1.333-0.706-2.766-0.462-4.297 0.248-1.536 0.886-3.04 1.915-4.512v0c1.108-1.585 2.474-2.797 4.097-3.636 1.617-0.843 3.293-1.225 5.027-1.144 1.724 0.082 3.325 0.64 4.802 1.673v0c1.267 0.886 2.183 1.997 2.75 3.332 0.563 1.341 0.723 2.777 0.478 4.308-0.248 1.536-0.886 3.04-1.915 4.512v0c-1.108 1.585-2.471 2.799-4.089 3.642-1.617 0.843-3.293 1.225-5.026 1.144-1.73-0.086-3.33-0.644-4.802-1.673zM206.707 48.841c1.272 0.89 2.643 1.082 4.112 0.577 1.464-0.509 2.814-1.648 4.05-3.416v0c0.935-1.337 1.568-2.672 1.899-4.006 0.329-1.343 0.33-2.567 0.003-3.67-0.322-1.1-0.949-1.976-1.882-2.629v0c-1.267-0.886-2.638-1.071-4.115-0.555-1.471 0.52-2.833 1.675-4.085 3.465v0c-0.935 1.337-1.566 2.669-1.893 3.997-0.318 1.327-0.318 2.531 0.001 3.614 0.324 1.086 0.961 1.96 1.91 2.623z" fill="#000000" data-fill-palette-color="primary"></path><path d="M222.754 66.714c0.795-1.126 2.341-3.368 4.64-6.726 2.293-3.354 3.879-5.679 4.759-6.972v0c0.772-1.208 0.749-2.353-0.067-3.435v0l0.069-0.168 1.228-0.659 2.035 2.63c0.65 0.819 1.305 1.576 1.964 2.271 0.654 0.698 1.078 1.148 1.27 1.347v0l-0.107 0.199-1.159 0.603c-0.589-0.7-1.044-1.132-1.367-1.295-0.327-0.169-0.643-0.133-0.947 0.108v0c-0.412 0.327-1.666 1.938-3.76 4.833-2.1 2.899-3.514 4.869-4.243 5.908v0l0.104 0.131 6.329-1.895c2.218-0.634 3.88-1.142 4.987-1.524v0c0.549-0.822 0.863-1.537 0.943-2.146 0.085-0.613-0.122-1.234-0.621-1.862v0l0.069-0.168 1.234-0.651 2.029 2.622c0.633 0.799 1.271 1.561 1.913 2.286 0.651 0.726 1.073 1.189 1.265 1.389v0l-0.113 0.191-1.159 0.603c-0.61-0.717-1.067-1.156-1.371-1.317-0.308-0.167-0.602-0.14-0.881 0.081v0c-0.392 0.311-1.635 1.913-3.729 4.808-2.1 2.899-3.525 4.877-4.274 5.933v0l0.104 0.131c3.204-0.988 5.275-1.605 6.212-1.853v0c1.769-0.521 3.272-0.982 4.507-1.382 1.236-0.4 1.985-0.705 2.247-0.914v0c0.304-0.241 0.436-0.509 0.395-0.804-0.045-0.3-0.257-0.69-0.637-1.169v0l-0.951-1.198 0.089-0.285 1.134-0.635c0.155 0.196 0.454 0.593 0.895 1.192 0.445 0.604 0.976 1.295 1.594 2.073v0l2.145 2.643-1.382 0.718c-0.39-0.396-0.844-0.598-1.362-0.606-0.523-0.014-1.414 0.164-2.675 0.533v0l-14.689 4.232-1.941-1.32 7.27-10.524-0.154-0.193-11.876 3.587z" fill="#000000" data-fill-palette-color="primary"></path><path d="M246.573 101.628c0.523 0.68 1.05 1.103 1.581 1.268 0.533 0.171 1.131 0.119 1.794-0.154v0l7.65-2.982c1.283-0.53 2.153-1.214 2.612-2.051 0.467-0.834 0.489-1.761 0.066-2.782v0c-0.339-0.821-0.895-1.562-1.667-2.225-0.769-0.672-1.528-1.226-2.279-1.663v0c-5.384 1.956-8.574 3.139-9.571 3.551v0c-0.79 0.327-1.304 0.66-1.54 1-0.233 0.331-0.244 0.752-0.033 1.263v0c0.118 0.286 0.242 0.551 0.372 0.796 0.13 0.245 0.215 0.417 0.255 0.514v0l-0.121 0.146-1.794 0.336c-0.065-0.244-0.222-0.702-0.472-1.374-0.25-0.673-0.533-1.392-0.849-2.158v0c-0.276-0.669-0.614-1.39-1.013-2.165-0.395-0.783-0.658-1.298-0.787-1.543v0l1.647-0.457c0.434 0.689 0.883 1.119 1.345 1.291 0.454 0.168 1.04 0.104 1.757-0.193v0l9.355-3.867c0.869-0.359 1.416-0.749 1.641-1.17 0.231-0.423 0.203-0.981-0.083-1.674v0l-0.174-0.419 0.106-0.183 1.317-0.405c0.631 1.027 1.292 2.032 1.982 3.013 0.693 0.988 1.142 1.617 1.347 1.888v0l-0.212 0.365c-0.175 0.008-0.532 0.064-1.074 0.167-0.539 0.109-1.082 0.259-1.629 0.449v0l-0.085 0.131c3.143 2.11 4.889 3.587 5.239 4.432v0c0.666 1.611 0.747 3.072 0.243 4.384-0.501 1.318-1.506 2.288-3.014 2.912v0c-0.255 0.106-1.464 0.513-3.626 1.222v0c-2.739 0.898-4.632 1.563-5.678 1.995v0c-0.742 0.307-1.244 0.632-1.507 0.975-0.255 0.347-0.282 0.764-0.081 1.251v0c0.116 0.28 0.238 0.542 0.368 0.787 0.13 0.245 0.216 0.42 0.259 0.523v0l-0.125 0.137-1.775 0.382c-0.065-0.244-0.217-0.689-0.457-1.338-0.24-0.648-0.518-1.355-0.834-2.122v0c-0.276-0.669-0.654-1.402-1.134-2.2-0.482-0.804-0.8-1.324-0.954-1.559v0z" fill="#000000" data-fill-palette-color="primary"></path><path d="M17.632 204.321c2.902-4.044 5.649-7.952 8.241-11.724 2.592-3.773 4.676-6.851 6.254-9.234 1.569-2.387 2.564-3.896 2.986-4.529v0l-0.087-0.221-18.55 7.073c-0.636 0.251-1.043 0.528-1.221 0.831-0.183 0.306-0.179 0.703 0.014 1.193v0l0.915 2.185-0.138 0.16-2.101 0.373c-0.095-0.33-0.314-0.993-0.658-1.989-0.343-0.996-0.668-1.882-0.975-2.66v0c-0.285-0.722-0.644-1.489-1.077-2.301-0.439-0.81-0.725-1.337-0.857-1.581v0l2.075-0.575c0.469 0.848 0.997 1.406 1.584 1.677 0.591 0.262 1.324 0.238 2.199-0.072v0l19.12-6.894c0.893-0.352 1.422-0.868 1.585-1.548 0.163-0.68 0.035-1.767-0.386-3.263v0l0.157-0.221 1.744-0.285c0.073 0.275 0.252 0.855 0.537 1.74 0.279 0.887 0.515 1.575 0.708 2.065v0c0.239 0.606 0.493 1.188 0.763 1.746 0.272 0.564 0.457 0.926 0.556 1.085v0c-2.474 3.444-4.873 6.864-7.195 10.263-2.323 3.398-4.225 6.22-5.708 8.466-1.474 2.25-2.413 3.671-2.817 4.261v0l0.087 0.22 17.513-6.907c1.242-0.49 1.675-1.212 1.298-2.167v0l-0.694-1.624 0.142-0.152 2.098-0.382c0.083 0.3 0.262 0.862 0.538 1.687 0.276 0.825 0.579 1.656 0.91 2.494v0c0.294 0.747 0.673 1.555 1.137 2.426 0.455 0.867 0.755 1.438 0.898 1.714v0l-2.075 0.574c-0.539-0.954-1.111-1.58-1.716-1.879-0.597-0.295-1.321-0.292-2.172 0.008v0l-24.534 8.977z" fill="#000000" data-fill-palette-color="primary"></path><path d="M33.235 226.543c-1.082-1.4-1.696-2.904-1.841-4.513-0.149-1.614 0.164-3.198 0.94-4.754 0.776-1.556 1.961-2.949 3.554-4.179v0c1.718-1.327 3.582-2.174 5.594-2.54 2.011-0.356 3.93-0.202 5.757 0.464 1.824 0.661 3.353 1.79 4.588 3.388v0c1.062 1.374 1.669 2.871 1.823 4.489 0.158 1.624-0.152 3.214-0.928 4.77-0.772 1.561-1.955 2.957-3.548 4.187v0c-1.718 1.327-3.582 2.169-5.592 2.526-2.016 0.36-3.935 0.21-5.759-0.45-1.828-0.666-3.357-1.795-4.588-3.388zM35.835 226.18c1.058 1.369 2.46 2.027 4.206 1.974 1.737-0.054 3.564-0.821 5.479-2.301v0c1.447-1.118 2.572-2.336 3.374-3.654 0.798-1.323 1.207-2.628 1.226-3.915 0.025-1.291-0.353-2.441-1.133-3.451v0c-1.062-1.374-2.469-2.028-4.221-1.962-1.753 0.066-3.597 0.847-5.534 2.343v0c-1.447 1.118-2.566 2.332-3.358 3.642-0.782 1.311-1.185 2.603-1.208 3.875-0.017 1.269 0.372 2.418 1.169 3.449z" fill="#000000" data-fill-palette-color="primary"></path><path d="M56.557 249.802c-1.39-1.095-2.351-2.404-2.884-3.929-0.538-1.529-0.619-3.142-0.245-4.84 0.374-1.698 1.184-3.337 2.43-4.918v0c1.343-1.705 2.946-2.98 4.808-3.825 1.863-0.835 3.762-1.152 5.697-0.95 1.93 0.197 3.688 0.92 5.275 2.169v0c1.364 1.074 2.318 2.378 2.86 3.911 0.548 1.537 0.635 3.154 0.26 4.852-0.369 1.702-1.177 3.344-2.422 4.925v0c-1.343 1.705-2.946 2.975-4.809 3.81-1.867 0.84-3.766 1.162-5.696 0.965-1.935-0.201-3.693-0.924-5.274-2.17zM58.99 248.818c1.359 1.07 2.879 1.368 4.561 0.891 1.672-0.475 3.257-1.663 4.754-3.565v0c1.131-1.437 1.926-2.892 2.383-4.365 0.452-1.478 0.531-2.843 0.237-4.096-0.29-1.258-0.936-2.282-1.939-3.072v0c-1.364-1.074-2.888-1.366-4.572-0.876-1.684 0.491-3.283 1.697-4.797 3.619v0c-1.131 1.437-1.922 2.886-2.371 4.35-0.44 1.462-0.516 2.813-0.228 4.053 0.292 1.235 0.949 2.255 1.972 3.061z" fill="#000000" data-fill-palette-color="primary"></path><path d="M94.419 270.672c-2.216-0.957-3.044-2.515-2.484-4.674v0l-0.245-0.256c-3.83 0.739-6.044 0.979-6.641 0.721v0c-1.624-0.702-2.9-1.697-3.827-2.986-0.924-1.295-1.432-2.772-1.525-4.431-0.09-1.665 0.245-3.38 1.007-5.143v0c0.871-2.017 2.15-3.675 3.837-4.975 1.692-1.297 3.574-2.096 5.646-2.397 2.072-0.302 4.062-0.04 5.97 0.784v0c0.912 0.394 1.868 0.875 2.87 1.444v0l3.059-7.083c0.665-1.54 0.472-2.537-0.578-2.991v0c-0.199-0.086-0.423-0.158-0.67-0.214-0.248-0.057-0.405-0.082-0.473-0.075v0l0.853-1.502c1.295 0.352 2.66 0.669 4.092 0.951 1.433 0.282 2.352 0.461 2.757 0.535v0l0.015 0.662c-0.523 0.347-2.097 3.229-4.722 8.644-2.626 5.415-5.284 11.238-7.977 17.469v0c-0.271 0.628-0.323 1.179-0.155 1.653 0.165 0.48 0.517 0.836 1.054 1.068v0c0.399 0.172 0.825 0.263 1.279 0.273 0.454 0.01 0.839-0.017 1.154-0.082 0.315-0.065 0.512-0.116 0.592-0.153v0l0.301 0.947c-0.145 0.102-0.491 0.315-1.039 0.637-0.542 0.325-1.2 0.621-1.974 0.888-0.777 0.273-1.503 0.368-2.176 0.286zM86.925 263.984c0.598 0.258 1.32 0.37 2.167 0.334 0.843-0.044 1.583-0.14 2.22-0.287 0.637-0.148 1.053-0.247 1.247-0.3v0l5.047-11.684c-0.058-0.097-0.226-0.298-0.502-0.604-0.27-0.303-0.683-0.657-1.239-1.062-0.547-0.408-1.204-0.778-1.971-1.11v0c-1.908-0.824-3.689-0.823-5.343 0.003-1.657 0.817-2.971 2.349-3.942 4.596v0c-0.616 1.425-0.925 2.829-0.926 4.21-0.008 1.379 0.275 2.598 0.849 3.656 0.575 1.058 1.372 1.807 2.393 2.248z" fill="#000000" data-fill-palette-color="primary"></path><path d="M108.513 274.971l0.571-1.836c0.9-0.063 1.561-0.242 1.984-0.538 0.422-0.289 0.725-0.683 0.909-1.182 0.185-0.506 0.402-1.364 0.653-2.576v0l4.611-22.351c0.194-0.941 0.219-1.6 0.076-1.979-0.143-0.379-0.55-0.637-1.22-0.775v0c-0.148-0.031-0.502-0.073-1.061-0.129v0l-0.118-0.115 0.503-1.508c2.62 0.158 4.956 0.18 7.008 0.066v0l0.149 0.645c-0.441 0.446-1.408 3.635-2.901 9.567-1.491 5.925-2.925 12.225-4.302 18.899v0c-0.189 0.915-0.201 1.594-0.038 2.037 0.164 0.443 0.532 0.724 1.106 0.843v0l1.612 0.242 0.059 0.203-0.77 1.876c-1.985-0.504-3.328-0.828-4.031-0.972v0c-1.031-0.213-2.631-0.351-4.8-0.417z" fill="#000000" data-fill-palette-color="primary"></path><path d="M139.013 278.269c-1.92-0.042-3.614-0.507-5.082-1.395-1.467-0.888-2.588-2.123-3.362-3.706-0.768-1.576-1.13-3.374-1.086-5.393v0c0.046-2.071 0.559-4.011 1.54-5.818 0.987-1.807 2.282-3.236 3.884-4.287 1.609-1.05 3.311-1.556 5.106-1.516v0c2.262 0.05 3.969 0.66 5.121 1.83 1.152 1.177 1.704 2.863 1.655 5.06v0c-0.02 0.901-0.129 1.658-0.326 2.273v0l-0.624 0.539-12.824-0.283c-0.099 3.005 0.445 5.336 1.633 6.994 1.187 1.651 2.883 2.501 5.086 2.55v0c1.736 0.038 3.637-0.4 5.703-1.316v0l0.274 0.105 0.484 1.353c-1.136 0.784-2.385 1.487-3.748 2.108-1.362 0.621-2.507 0.922-3.434 0.902zM133.241 263.861l8.423-0.229c0.462-0.056 0.773-0.157 0.934-0.305 0.155-0.154 0.237-0.465 0.248-0.932v0c0.027-1.236-0.284-2.187-0.934-2.853-0.65-0.666-1.596-1.012-2.839-1.04v0c-1.453-0.032-2.71 0.437-3.772 1.408-1.061 0.97-1.748 2.287-2.06 3.951z" fill="#000000" data-fill-palette-color="primary"></path><path d="M181.173 270.949l-0.368-2.004c1.398-0.671 2.326-1.236 2.784-1.694 0.452-0.456 0.642-1.043 0.57-1.762-0.078-0.717-0.433-1.898-1.066-3.544v0l-7.27-18.917c-2.429 1.032-4.047 1.809-4.854 2.33-0.811 0.53-1.251 1.182-1.321 1.956-0.069 0.774 0.128 2.149 0.593 4.127v0l-1.977 0.961c-0.707-2.885-1.451-5.471-2.231-7.758v0l0.252-0.498 3.795-0.909 13.446-5.167 3.509-1.899 0.522 0.202c0.997 2.337 2.154 4.697 3.471 7.08v0l-1.978 0.96c-1.053-1.787-1.864-2.952-2.431-3.494-0.576-0.547-1.309-0.765-2.197-0.657-0.888 0.109-2.511 0.553-4.869 1.332v0c0.493 1.798 1.511 4.923 3.054 9.376 1.551 4.457 3.003 8.447 4.357 11.971v0c0.413 1.075 0.893 1.764 1.44 2.068 0.547 0.304 1.268 0.284 2.165-0.06v0c0.866-0.333 1.644-0.681 2.336-1.046v0l0.192 0.117 0.381 2.147-1.445 0.502-4.987 1.822c-1.59 0.611-3.548 1.43-5.873 2.458z" fill="#000000" data-fill-palette-color="primary"></path><path d="M214.496 255.04c-1.471 0.983-3.014 1.491-4.628 1.525-1.62 0.038-3.179-0.384-4.678-1.266-1.499-0.882-2.807-2.159-3.925-3.833v0c-1.206-1.805-1.921-3.724-2.147-5.756-0.217-2.03 0.07-3.934 0.86-5.712 0.785-1.774 2.017-3.222 3.696-4.343v0c1.444-0.964 2.979-1.467 4.604-1.509 1.631-0.045 3.196 0.373 4.694 1.255 1.504 0.878 2.815 2.154 3.933 3.828v0c1.206 1.805 1.917 3.723 2.134 5.753 0.221 2.036-0.061 3.941-0.846 5.715-0.79 1.778-2.022 3.225-3.697 4.343zM214.314 252.421c1.439-0.961 2.192-2.314 2.259-4.06 0.066-1.737-0.573-3.612-1.917-5.625v0c-1.016-1.521-2.153-2.727-3.413-3.617-1.265-0.887-2.539-1.385-3.821-1.494-1.286-0.114-2.46 0.184-3.521 0.892v0c-1.444 0.964-2.194 2.323-2.249 4.077-0.055 1.753 0.597 3.647 1.956 5.682v0c1.016 1.521 2.15 2.721 3.401 3.601 1.254 0.871 2.515 1.362 3.784 1.472 1.264 0.105 2.438-0.205 3.521-0.928z" fill="#000000" data-fill-palette-color="primary"></path><path d="M237.483 235.021c-1.419-0.615-4.239-1.785-8.458-3.512-4.219-1.726-7.141-2.917-8.765-3.573v0c-1.512-0.554-2.761-0.258-3.747 0.889v0l-0.208-0.043-1.005-1.185 2.394-2.847c0.748-0.909 1.428-1.807 2.038-2.693 0.606-0.881 0.997-1.454 1.172-1.719v0l0.24 0.082 0.936 1.129c-0.627 0.813-0.991 1.416-1.093 1.809-0.106 0.398 0.008 0.735 0.343 1.012v0c0.452 0.372 2.513 1.366 6.185 2.982 3.666 1.612 6.154 2.698 7.465 3.257v0l0.119-0.145-3.573-6.494c-1.212-2.284-2.158-3.987-2.837-5.109v0c-1.03-0.405-1.89-0.581-2.582-0.527-0.686 0.057-1.315 0.434-1.888 1.129v0l-0.201-0.05-1.005-1.186 2.394-2.847c0.727-0.884 1.413-1.763 2.058-2.638 0.644-0.876 1.052-1.443 1.222-1.703v0l0.238 0.068 0.931 1.136c-0.643 0.833-1.017 1.437-1.121 1.812-0.109 0.37-0.006 0.685 0.308 0.945v0c0.427 0.351 2.475 1.335 6.147 2.95 3.671 1.616 6.172 2.712 7.503 3.289v0l0.119-0.145c-1.841-3.279-3.008-5.402-3.498-6.368v0c-0.99-1.82-1.847-3.361-2.572-4.622-0.729-1.256-1.239-2.004-1.529-2.243v0c-0.335-0.276-0.661-0.356-0.976-0.241-0.32 0.12-0.698 0.444-1.133 0.972v0l-1.091 1.325-0.332-0.031-0.962-1.098c0.176-0.213 0.542-0.632 1.098-1.256 0.551-0.628 1.182-1.374 1.893-2.237v0l2.39-2.966 1.118 1.343c-0.347 0.515-0.463 1.059-0.346 1.631 0.107 0.574 0.509 1.509 1.204 2.807v0l8.11 15.097-0.99 2.444-13.247-5.487-0.176 0.214 6.731 12.16z" fill="#000000" data-fill-palette-color="primary"></path><path d="M262.276 192.578c0.145-0.948 0.077-1.701-0.205-2.26-0.281-0.559-0.793-0.999-1.536-1.321v0l-8.374-3.827c-1.419-0.614-2.646-0.783-3.682-0.508-1.031 0.278-1.793 0.987-2.287 2.128v0c-0.392 0.906-0.556 1.931-0.492 3.077 0.066 1.139 0.213 2.182 0.442 3.126v0c5.78 2.809 9.222 4.453 10.327 4.931v0c0.881 0.381 1.55 0.534 2.005 0.459 0.455-0.075 0.806-0.397 1.051-0.964v0c0.136-0.314 0.25-0.619 0.343-0.916 0.099-0.294 0.173-0.499 0.222-0.613v0l0.208-0.008 1.664 1.172c-0.14 0.24-0.383 0.727-0.728 1.459-0.349 0.723-0.709 1.514-1.08 2.371v0c-0.319 0.737-0.636 1.57-0.953 2.501-0.314 0.925-0.521 1.534-0.619 1.829v0l-1.657-0.965c0.219-0.887 0.215-1.581-0.014-2.081-0.219-0.503-0.727-0.928-1.524-1.272v0l-10.405-4.502c-0.972-0.421-1.716-0.556-2.232-0.407-0.522 0.147-0.949 0.603-1.281 1.37v0l-0.203 0.471-0.227 0.052-1.349-0.734c0.331-1.312 0.622-2.63 0.873-3.955 0.251-1.325 0.408-2.178 0.472-2.558v0l0.454-0.105c0.146 0.127 0.471 0.369 0.977 0.724 0.506 0.355 1.051 0.677 1.636 0.966v0l0.166-0.036c-0.758-4.177-0.935-6.733-0.531-7.669v0c0.776-1.793 1.89-3.002 3.344-3.628 1.451-0.619 3.015-0.566 4.693 0.161v0c0.284 0.123 1.554 0.773 3.811 1.95v0c2.859 1.509 4.871 2.516 6.036 3.02v0c0.827 0.358 1.483 0.506 1.969 0.444 0.477-0.059 0.833-0.36 1.068-0.903v0c0.136-0.314 0.25-0.619 0.343-0.917 0.099-0.294 0.173-0.499 0.222-0.613v0l0.208-0.007 1.68 1.136c-0.14 0.24-0.376 0.712-0.708 1.413-0.338 0.699-0.692 1.475-1.061 2.326v0c-0.319 0.737-0.612 1.613-0.879 2.63-0.274 1.014-0.442 1.676-0.505 1.985v0z" fill="#000000" data-fill-palette-color="primary"></path><path d="M3.825 142.92c0-6.492 5.263-11.756 11.756-11.755 6.492 0 11.756 5.263 11.756 11.755 0 6.492-5.263 11.756-11.756 11.756-6.492 0-11.756-5.263-11.756-11.756z" fill="#000000" data-fill-palette-color="primary"></path><path d="M250.933 142.92c0-6.492 5.263-11.756 11.756-11.755 6.492 0 11.756 5.263 11.755 11.755 0 6.492-5.263 11.756-11.755 11.756-6.492 0-11.756-5.263-11.756-11.756z" fill="#000000" data-fill-palette-color="primary"></path></g><g id="text-1"></g></svg></g><g transform="matrix(1,0,0,1,53.1494936,299.87488)"><svg viewBox="0 0 171.97061280000003 19.227857799626552" height="19.227857799626552" width="171.97061280000003"><g transform="matrix(1,0,0,1,0,0)"><svg width="171.97061280000003" viewBox="2.81 -38.09 431.42 48.25" height="19.227857799626552" data-palette-color="#61777f"><path d="M14.79 0.51L14.79 0.51Q11.55 0.51 8.54-0.44 5.54-1.39 2.81-3.37L2.81-3.37 2.81-10.96 6.54-10.96 7.35-5.37Q8.94-4.39 10.79-3.86 12.65-3.32 14.79-3.32L14.79-3.32Q17.24-3.32 18.93-4.06 20.63-4.81 21.53-6.13 22.44-7.45 22.44-9.2L22.44-9.2Q22.44-10.84 21.66-12.08 20.87-13.33 19.08-14.27 17.29-15.21 14.18-15.92L14.18-15.92Q10.52-16.77 8-18.2 5.47-19.63 4.16-21.67 2.86-23.71 2.86-26.34L2.86-26.34Q2.86-29.13 4.33-31.32 5.81-33.52 8.45-34.79 11.08-36.06 14.6-36.06L14.6-36.06Q18.33-36.06 21.2-34.92 24.07-33.79 25.93-32.18L25.93-32.18 25.93-25.07 22.19-25.07 21.39-30.15Q20.29-31.03 18.65-31.62 17.02-32.2 14.6-32.2L14.6-32.2Q12.55-32.2 10.99-31.48 9.42-30.76 8.54-29.47 7.67-28.17 7.67-26.42L7.67-26.42Q7.67-24.88 8.46-23.73 9.25-22.58 11.05-21.72 12.84-20.85 15.84-20.09L15.84-20.09Q21.46-18.7 24.35-15.98 27.25-13.26 27.25-9.25L27.25-9.25Q27.25-6.4 25.71-4.19 24.17-1.98 21.37-0.73 18.58 0.51 14.79 0.51ZM43.77 0L31 0 31-3.08 34.98-3.76 34.98-34.3 31-34.99 31-38.09 39.79-38.09 39.79-3.76 43.77-3.08 43.77 0ZM58.81 0.51L58.81 0.51Q54.51 0.51 52.09-2.25 49.68-5 49.68-10.84L49.68-10.84 49.68-22.63 46.65-23.32 46.65-26.42 49.68-26.42 54.49-26.42 54.49-10.79Q54.49-6.57 55.73-4.98 56.98-3.39 59.61-3.39L59.61-3.39Q62.18-3.39 63.85-4.43 65.52-5.47 66.38-7.37L66.38-7.37 66.38-22.63 62.84-23.32 62.84-26.42 66.38-26.42 71.19-26.42 71.19-3.76 74.21-3.08 74.21 0 66.87 0 66.55-3.91Q65.3-1.78 63.34-0.63 61.37 0.51 58.81 0.51ZM90.3 0L77.53 0 77.53-3.08 81.51-3.76 81.51-22.63 77.53-23.32 77.53-26.42 85.81-26.42 86.22-23.05 86.27-22.58Q87.39-24.61 89.04-25.76 90.69-26.9 92.81-26.9L92.81-26.9Q93.57-26.9 94.37-26.77 95.16-26.64 95.5-26.51L95.5-26.51 94.87-22.05 91.52-22.24Q89.62-22.36 88.32-21.37 87.03-20.39 86.32-18.73L86.32-18.73 86.32-3.76 90.3-3.08 90.3 0ZM110.44 10.16L97.7 10.16 97.7 7.06 101.43 6.37 101.43-22.63 97.45-23.32 97.45-26.42 105.56-26.42 106-23.19Q107.31-25 109.21-25.95 111.1-26.9 113.59-26.9L113.59-26.9Q116.86-26.9 119.18-25.13 121.5-23.36 122.72-20.18 123.94-16.99 123.94-12.72L123.94-12.72 123.94-12.21Q123.94-8.4 122.71-5.54 121.47-2.69 119.18-1.09 116.88 0.51 113.66 0.51L113.66 0.51Q111.22 0.51 109.38-0.31 107.53-1.12 106.24-2.73L106.24-2.73 106.24 6.37 110.44 7.06 110.44 10.16ZM112.17-3.25L112.17-3.25Q115.59-3.25 117.35-5.74 119.11-8.23 119.11-12.21L119.11-12.21 119.11-12.72Q119.11-15.75 118.32-18.05 117.54-20.36 115.99-21.68 114.44-23 112.12-23L112.12-23Q110.07-23 108.61-22.07 107.14-21.14 106.24-19.53L106.24-19.53 106.24-6.67Q107.14-5.03 108.6-4.14 110.05-3.25 112.17-3.25ZM129.11 7.59L129.11 7.59 126.4 5.79Q127.55 4.03 128.14 2.2 128.72 0.37 128.72-1.68L128.72-1.68 128.72-5.4 133.53-5.4 133.53-1.76Q133.53 0.63 132.34 3.25 131.14 5.86 129.11 7.59ZM162.92 0.51L162.92 0.51Q159.67 0.51 156.67-0.44 153.67-1.39 150.93-3.37L150.93-3.37 150.93-10.96 154.67-10.96 155.48-5.37Q157.06-4.39 158.92-3.86 160.77-3.32 162.92-3.32L162.92-3.32Q165.36-3.32 167.06-4.06 168.76-4.81 169.66-6.13 170.56-7.45 170.56-9.2L170.56-9.2Q170.56-10.84 169.78-12.08 169-13.33 167.21-14.27 165.41-15.21 162.31-15.92L162.31-15.92Q158.65-16.77 156.12-18.2 153.6-19.63 152.29-21.67 150.98-23.71 150.98-26.34L150.98-26.34Q150.98-29.13 152.46-31.32 153.94-33.52 156.57-34.79 159.21-36.06 162.73-36.06L162.73-36.06Q166.46-36.06 169.33-34.92 172.2-33.79 174.05-32.18L174.05-32.18 174.05-25.07 170.32-25.07 169.51-30.15Q168.42-31.03 166.78-31.62 165.14-32.2 162.73-32.2L162.73-32.2Q160.68-32.2 159.11-31.48 157.55-30.76 156.67-29.47 155.79-28.17 155.79-26.42L155.79-26.42Q155.79-24.88 156.59-23.73 157.38-22.58 159.17-21.72 160.97-20.85 163.97-20.09L163.97-20.09Q169.59-18.7 172.48-15.98 175.37-13.26 175.37-9.25L175.37-9.25Q175.37-6.4 173.84-4.19 172.3-1.98 169.5-0.73 166.71 0.51 162.92 0.51ZM187.92 0.51L187.92 0.51Q183.79 0.51 181.65-1.5 179.5-3.52 179.5-7.18L179.5-7.18Q179.5-9.69 180.88-11.56 182.26-13.43 184.87-14.47 187.48-15.5 191.12-15.5L191.12-15.5 195.83-15.5 195.83-18.09Q195.83-20.48 194.38-21.8 192.92-23.12 190.29-23.12L190.29-23.12Q188.63-23.12 187.41-22.72 186.19-22.31 185.19-21.61L185.19-21.61 184.67-17.92 180.96-17.92 180.96-23.97Q182.74-25.42 185.11-26.16 187.48-26.9 190.36-26.9L190.36-26.9Q195.17-26.9 197.9-24.61 200.64-22.31 200.64-18.04L200.64-18.04 200.64-5.32Q200.64-4.81 200.65-4.32 200.66-3.83 200.71-3.34L200.71-3.34 203.28-3.08 203.28 0 196.37 0Q196.15-1.07 196.02-1.93 195.9-2.78 195.85-3.64L195.85-3.64Q194.46-1.86 192.38-0.67 190.29 0.51 187.92 0.51ZM188.63-3.52L188.63-3.52Q191.02-3.52 193-4.66 194.98-5.81 195.83-7.42L195.83-7.42 195.83-12.21 190.95-12.21Q187.63-12.21 185.97-10.62 184.31-9.03 184.31-7.08L184.31-7.08Q184.31-5.35 185.38-4.43 186.45-3.52 188.63-3.52ZM221.83 0L217.6 0 208.21-22.95 205.47-23.32 205.47-26.42 216.55-26.42 216.55-23.32 213.11-22.83 218.97-7.79 219.66-5.66 219.8-5.66 220.58-7.79 226.03-22.83 222.49-23.32 222.49-26.42 233.55-26.42 233.55-23.32 230.76-22.95 221.83 0ZM247.41 0.51L247.41 0.51Q243.75 0.51 241.1-1.21 238.45-2.93 237.01-5.97 235.57-9.01 235.57-12.92L235.57-12.92 235.57-13.45Q235.57-17.36 237.01-20.4 238.45-23.44 241.1-25.17 243.75-26.9 247.36-26.9L247.36-26.9Q251.02-26.9 253.67-25.17 256.32-23.44 257.76-20.41 259.2-17.38 259.2-13.45L259.2-13.45 259.2-12.92Q259.2-8.98 257.76-5.94 256.32-2.91 253.69-1.2 251.05 0.51 247.41 0.51ZM247.41-3.25L247.41-3.25Q249.71-3.25 251.26-4.5 252.81-5.76 253.6-7.95 254.39-10.13 254.39-12.92L254.39-12.92 254.39-13.45Q254.39-16.24 253.6-18.42 252.81-20.61 251.24-21.86 249.68-23.12 247.36-23.12L247.36-23.12Q245.07-23.12 243.51-21.86 241.94-20.61 241.16-18.42 240.38-16.24 240.38-13.45L240.38-13.45 240.38-12.92Q240.38-10.13 241.16-7.95 241.94-5.76 243.52-4.5 245.09-3.25 247.41-3.25ZM275.63 0L262.86 0 262.86-3.08 266.84-3.76 266.84-22.63 262.86-23.32 262.86-26.42 271.14-26.42 271.55-23.05 271.6-22.58Q272.73-24.61 274.37-25.76 276.02-26.9 278.15-26.9L278.15-26.9Q278.9-26.9 279.7-26.77 280.49-26.64 280.83-26.51L280.83-26.51 280.2-22.05 276.85-22.24Q274.95-22.36 273.65-21.37 272.36-20.39 271.65-18.73L271.65-18.73 271.65-3.76 275.63-3.08 275.63 0ZM282.22 7.59L282.22 7.59 279.51 5.79Q280.66 4.03 281.24 2.2 281.83 0.37 281.83-1.68L281.83-1.68 281.83-5.4 286.64-5.4 286.64-1.76Q286.64 0.63 285.44 3.25 284.25 5.86 282.22 7.59ZM316.03 0.51L316.03 0.51Q312.78 0.51 309.78-0.44 306.78-1.39 304.04-3.37L304.04-3.37 304.04-10.96 307.78-10.96 308.58-5.37Q310.17-4.39 312.03-3.86 313.88-3.32 316.03-3.32L316.03-3.32Q318.47-3.32 320.17-4.06 321.86-4.81 322.77-6.13 323.67-7.45 323.67-9.2L323.67-9.2Q323.67-10.84 322.89-12.08 322.11-13.33 320.31-14.27 318.52-15.21 315.42-15.92L315.42-15.92Q311.76-16.77 309.23-18.2 306.7-19.63 305.4-21.67 304.09-23.71 304.09-26.34L304.09-26.34Q304.09-29.13 305.57-31.32 307.05-33.52 309.68-34.79 312.32-36.06 315.83-36.06L315.83-36.06Q319.57-36.06 322.44-34.92 325.31-33.79 327.16-32.18L327.16-32.18 327.16-25.07 323.43-25.07 322.62-30.15Q321.52-31.03 319.89-31.62 318.25-32.2 315.83-32.2L315.83-32.2Q313.78-32.2 312.22-31.48 310.66-30.76 309.78-29.47 308.9-28.17 308.9-26.42L308.9-26.42Q308.9-24.88 309.69-23.73 310.49-22.58 312.28-21.72 314.08-20.85 317.08-20.09L317.08-20.09Q322.69-18.7 325.59-15.98 328.48-13.26 328.48-9.25L328.48-9.25Q328.48-6.4 326.94-4.19 325.4-1.98 322.61-0.73 319.81 0.51 316.03 0.51ZM345.25 0L332.48 0 332.48-3.08 336.46-3.76 336.46-22.63 332.48-23.32 332.48-26.42 340.78-26.42 341.1-22.97Q342.37-24.85 344.37-25.88 346.37-26.9 349.01-26.9L349.01-26.9Q351.65-26.9 353.54-25.68 355.43-24.46 356.38-22.02L356.38-22.02Q357.63-24.27 359.68-25.59 361.73-26.9 364.46-26.9L364.46-26.9Q368.52-26.9 370.86-24.13 373.2-21.36 373.2-15.8L373.2-15.8 373.2-3.76 377.18-3.08 377.18 0 364.39 0 364.39-3.08 368.37-3.76 368.37-15.84Q368.37-19.75 367.03-21.37 365.69-23 363.05-23L363.05-23Q360.53-23 359.01-21.23 357.48-19.46 357.24-16.77L357.24-16.77 357.24-3.76 361.22-3.08 361.22 0 348.45 0 348.45-3.08 352.43-3.76 352.43-15.84Q352.43-19.56 351.05-21.28 349.67-23 347.06-23L347.06-23Q344.86-23 343.44-22.09 342.03-21.19 341.27-19.56L341.27-19.56 341.27-3.76 345.25-3.08 345.25 0ZM393.34 0L380.58 0 380.58-3.08 384.55-3.76 384.55-22.63 380.58-23.32 380.58-26.42 389.36-26.42 389.36-3.76 393.34-3.08 393.34 0ZM389.36-32.93L384.31-32.93 384.31-38.09 389.36-38.09 389.36-32.93ZM409.19 0L396.42 0 396.42-3.08 400.4-3.76 400.4-34.3 396.42-34.99 396.42-38.09 405.21-38.09 405.21-3.76 409.19-3.08 409.19 0ZM424.15 0.51L424.15 0.51Q420.49 0.51 417.78-1.16 415.07-2.83 413.59-5.81 412.11-8.79 412.11-12.7L412.11-12.7 412.11-13.77Q412.11-17.53 413.66-20.5 415.21-23.46 417.79-25.18 420.37-26.9 423.42-26.9L423.42-26.9Q426.98-26.9 429.39-25.44 431.79-23.97 433.01-21.33 434.23-18.68 434.23-15.09L434.23-15.09 434.23-12.08 417.09-12.08 417.02-11.96Q417.07-9.42 417.91-7.46 418.75-5.49 420.34-4.37 421.93-3.25 424.15-3.25L424.15-3.25Q426.59-3.25 428.43-3.94 430.28-4.64 431.62-5.86L431.62-5.86 433.5-2.73Q432.08-1.37 429.75-0.43 427.42 0.51 424.15 0.51ZM417.19-15.97L417.24-15.84 429.42-15.84 429.42-16.48Q429.42-18.38 428.75-19.89 428.08-21.39 426.75-22.25 425.42-23.12 423.42-23.12L423.42-23.12Q421.81-23.12 420.49-22.18 419.17-21.24 418.31-19.63 417.46-18.02 417.19-15.97L417.19-15.97Z" opacity="1" transform="matrix(1,0,0,1,0,0)" fill="#000000" class="slogan-text-1" data-fill-palette-color="secondary" id="text-1"></path></svg></g></svg></g></svg></g></svg></g></svg></g><defs></defs></svg><rect width="244.1705406141808" height="280" fill="none" stroke="none" visibility="hidden"></rect></g></svg></g></svg>